<?xml version="1.0" encoding="UTF-8"?>
<svg id="Layer_2" data-name="Layer 2" xmlns="http://www.w3.org/2000/svg" viewBox="0 0 614.59 387.17">
  <defs>
    <style>
      .cls-1 {
        fill: #fff;
      }
    </style>
  </defs>
  <g id="Layer_1-2" data-name="Layer 1">
    <g>
      <path class="cls-1" d="M.57,3.68l.57,1.05-.57,1.05-.57-1.05.57-1.05ZM147.15,360.28H.57l23.19-83.63h87.32c-.19,0-.29.09-.29.27,0,.18-.1.26-.28.26.19.35.28.71.28,1.05.19,0,.38-.17.57-.53,0-.34-.05-.53-.14-.53-.1,0-.15-.17-.15-.53h12.89c.19.71.47.71.86,0h20.33c-.39,1.41-.29,2.46.28,3.16.57,1.05,1.15,1.05,1.72,0,.19-1.05.19-2.1,0-3.16h2.29c3.81,0,7.02-2.1,9.59-6.31,2.58-4.21,4.24-9.46,5.01-15.77,0,1.75.29,2.81.86,3.16,1.52,1.4,2.47.7,2.86-2.1.19-1.75-.1-3.16-.86-4.21-.77-1.05-1.53-1.05-2.29,0-.19.35-.29.61-.29.79,0,.18-.1.44-.29.79.19-.7.29-1.93.29-3.68,0-1.4-.1-2.45-.29-3.16v-.53c.19-.7.1-1.75-.29-3.16-.76-6.31-2.86-11.39-6.29-15.25,1.52-.7,3.05-1.4,4.58-2.1,1.53-.7,3.05-1.4,4.58-2.1,0,2.46.57,3.86,1.72,4.21.76.7,1.43.53,2.01-.53.57-1.05.76-2.45.57-4.21,0-.35-.05-.61-.15-.79-.1-.17-.14-.43-.14-.79.19-.35.38-.53.57-.53s.38-.17.57-.53c.76,1.41,1.43,1.93,2.01,1.58,1.52.7,2.29-.7,2.29-4.21l1.72-1.58c.76,1.41,1.53,1.41,2.29,0,.38-.34.76-1.22,1.14-2.63.38-.7,1.14-1.4,2.29-2.1.57,0,1.05-.34,1.43-1.05.57-.34.86-.87.86-1.58,1.52-1.4,2.58-2.45,3.15-3.16.57,0,.95-.17,1.14-.53l.86-1.58c.38-.7.86-1.22,1.43-1.58.57-.34,1.05-.87,1.43-1.58h.57c-.77,2.1-.86,4.21-.29,6.31-1.14-1.4-2-2.1-2.58-2.1-1.91.71-2.77,2.63-2.58,5.79.19,2.1.81,3.68,1.86,4.73,1.05,1.05,1.96.88,2.72-.53.76-.7,1.19-1.66,1.29-2.9.1-1.22.05-2.36-.14-3.42.95,1.76,2,2.29,3.15,1.58-.77,2.81-.86,5.09-.29,6.84-.38-.7-.82-1.32-1.29-1.84-.48-.53-.91-.6-1.29-.26-.77.35-1.43.97-2.01,1.84-.57.88-.67,2.2-.29,3.95,0,1.75.52,3.24,1.58,4.47,1.04,1.23,1.96,1.15,2.72-.26.76-.7,1.19-1.66,1.29-2.9.1-1.22.05-2.36-.14-3.42.95,1.75,2,2.28,3.14,1.58-.38,2.81-.48,5.09-.28,6.84-.39-.7-.96-1.32-1.72-1.84-.77-.53-1.43-.43-2.01.27-1.72,2.1-1.91,4.73-.57,7.89.38,1.41.96,2.28,1.72,2.63.76.35,1.53,0,2.29-1.05.57-.7.9-1.66,1-2.9.09-1.22.05-2.36-.15-3.42,1.53,1.41,2.58,1.93,3.15,1.58-.38,2.81-.38,5.09,0,6.84-1.53-2.1-2.68-2.8-3.44-2.1-.95.7-1.53,1.84-1.71,3.42-.2,1.58,0,3.07.57,4.47.38,1.75,1,2.81,1.86,3.16.86.35,1.58,0,2.15-1.05,1.14-1.05,1.52-3.33,1.14-6.84.95,1.75,2,2.45,3.15,2.1-.57,2.45-.67,4.73-.29,6.84-.77-1.4-1.43-2.1-2.01-2.1-.96-.7-1.81-.27-2.58,1.31-.77,1.58-.96,3.24-.57,5,.38,1.75,1.05,3.07,2.01,3.94.95.88,1.81.79,2.58-.26.76-.7,1.19-1.66,1.29-2.9.1-1.22.05-2.54-.14-3.94.19,1.05.67,1.58,1.43,1.58,0,2.45-.1,4.21-.29,5.26h-.29c-.96-.7-1.77-.27-2.43,1.31-.67,1.58-.81,3.24-.43,5,.38,2.45,1.33,4.03,2.86,4.73-.38,2.1-.57,3.86-.57,5.26-1.14-1.05-2.19-.7-3.15,1.05-.38.71-.57,2.1-.57,4.21.38,2.46,1.14,4.04,2.29,4.73-.19,1.05-.33,2.03-.43,2.9-.1.88-.24,1.84-.43,2.89-.96-.7-1.62-.17-2.01,1.58-1.14,1.76-1.14,4.04,0,6.84,0,.71-.19,1.76-.57,3.16,0-.7-.1-1.05-.29-1.05,0-1.75-.53-3.06-1.58-3.94-1.05-.87-1.86-.61-2.43.79-.57,1.05-.76,2.37-.57,3.95.19,1.58.67,2.72,1.43,3.42.95,1.05,1.81.88,2.58-.53-.38,1.41-.81,2.81-1.29,4.21-.47,1.41-.91,2.81-1.29,4.21-.96-.34-1.62-.17-2.01.53-.96,1.41-1.05,3.16-.29,5.26-.19.71-.38,1.23-.57,1.58-.19.35-.39.88-.57,1.58,0-.7-.19-1.4-.57-2.1-.76-1.75-1.71-1.92-2.86-.53-1.14,2.1-1.05,4.21.29,6.31.19.35.33.53.43.53s.24.18.43.53c-4.39,9.12-9.45,16.75-15.17,22.88-5.73,6.13-11.93,10.44-18.61,12.88-.19-.34-.57-.34-1.14,0v.53c-3.44,1.05-6.97,1.58-10.59,1.58h-2.29ZM6.59,6.31l-.86-1.58.86-1.58.86,1.58-.86,1.58ZM5.72,16.31l.86-1.58.86,1.58-.86,1.58-.86-1.58ZM7.44,28.4l-.57,1.05-.57-2.1.29-.53.86,1.58ZM12.31,2.1c.19.71.38,1.14.57,1.31.19.18.38.62.57,1.32l-1.14,2.1c-.19-.34-.34-.7-.43-1.05-.1-.34-.24-.7-.43-1.05.19-.7.33-1.14.43-1.32.09-.17.24-.6.43-1.31ZM12.31,18.94c-.19-.7-.34-1.14-.43-1.32-.1-.17-.24-.61-.43-1.31.19-.35.33-.7.43-1.05.09-.35.24-.7.43-1.05l1.14,2.1c-.19.7-.38,1.14-.57,1.31-.19.18-.38.62-.57,1.32ZM12.31,30.51c-.19-.35-.34-.7-.43-1.05-.1-.35-.24-.7-.43-1.05.19-.7.33-1.14.43-1.32.09-.17.24-.61.43-1.31.19.7.38,1.14.57,1.31.19.18.38.62.57,1.32l-1.14,2.1ZM12.31,42.08c-.39-.7-.67-1.4-.86-2.1.19-.35.33-.7.43-1.05.09-.35.24-.7.43-1.05.19.7.38,1.14.57,1.31.19.18.38.44.57.79-.19.7-.38,1.14-.57,1.31-.19.18-.38.44-.57.79ZM13.17,52.6l-.86-2.63c.38.35.61.7.72,1.05.09.35.24.7.43,1.05l-.29.53ZM19.76,4.73c-.57.71-1.05,1.58-1.43,2.63l-1.43-2.63c.38-.7.76-1.75,1.14-3.16l1.72,3.16ZM18.32,19.46c-.39-.7-.62-1.22-.72-1.58-.1-.35-.34-.87-.72-1.58.38-.35.76-1.22,1.14-2.63.76,1.41,1.33,2.28,1.72,2.63-.77,1.41-1.24,2.46-1.43,3.16ZM16.89,28.4c.38-.7.76-1.75,1.14-3.16l1.72,3.16c-.39.7-.67,1.14-.86,1.31-.19.18-.38.62-.57,1.32l-1.43-2.63ZM18.32,43.13c-.39-.7-.62-1.23-.72-1.58-.1-.35-.34-.87-.72-1.58.38-.35.76-1.23,1.14-2.63.76,1.4,1.33,2.28,1.72,2.63-.77,1.4-1.24,2.45-1.43,3.16ZM16.89,52.07c.38-.7.76-1.75,1.14-3.16l1.72,3.16c-.39.7-.67,1.14-.86,1.31-.19.18-.38.61-.57,1.32l-1.43-2.63ZM18.32,66.79c-.39-.7-.62-1.22-.72-1.58-.1-.34-.34-.87-.72-1.58.38-.34.76-1.22,1.14-2.63.76,1.41,1.33,2.29,1.72,2.63-.77,1.41-1.24,2.46-1.43,3.16ZM24.05,1.05c.57,1.41,1.24,2.63,2.01,3.68-.77,1.05-1.43,2.29-2.01,3.68-.77-1.75-1.34-2.97-1.72-3.68.95-1.75,1.53-2.97,1.72-3.68ZM26.05,16.31c-.77,1.05-1.43,2.28-2.01,3.68-.38-.7-.67-1.32-.86-1.84-.2-.53-.48-1.14-.86-1.84.95-1.75,1.53-2.98,1.72-3.68.57,1.41,1.24,2.63,2.01,3.68ZM24.05,31.56c-.38-.7-.67-1.22-.86-1.58-.2-.35-.48-.87-.86-1.58.95-1.75,1.53-2.98,1.72-3.68.57,1.41,1.24,2.63,2.01,3.68-.57.7-1.24,1.75-2.01,3.16ZM24.05,36.29c.57,1.4,1.24,2.63,2.01,3.68-.77,1.05-1.43,2.28-2.01,3.68-.77-1.75-1.34-2.98-1.72-3.68.76-1.4,1.34-2.63,1.72-3.68ZM24.05,48.39c.57,1.4,1.24,2.63,2.01,3.68-.57.7-1.24,1.75-2.01,3.16-.38-.7-.67-1.23-.86-1.58-.2-.35-.48-.87-.86-1.58.76-1.4,1.34-2.63,1.72-3.68ZM24.05,67.32c-.38-.7-.67-1.31-.86-1.84-.2-.53-.48-1.14-.86-1.84.95-1.75,1.53-2.97,1.72-3.68.57,1.41,1.24,2.63,2.01,3.68-.77,1.05-1.43,2.29-2.01,3.68ZM24.05,72.05c.57,1.41,1.24,2.63,2.01,3.68-.57.71-1.24,1.76-2.01,3.16-.38-.7-.67-1.22-.86-1.58-.2-.34-.48-.87-.86-1.58.76-1.4,1.34-2.63,1.72-3.68ZM149.16,0c8.4,0,16.32,2.89,23.76,8.68,7.44,5.79,13.89,13.68,19.33,23.67,5.44,9.99,9.73,21.75,12.88,35.24,3.15,13.5,4.73,27.79,4.73,42.86,0,16.83-2.01,32.61-6.01,47.34-1.72,7.02-4.11,13.68-7.16,19.99-4.01,10.18-9.59,17.97-16.75,23.4-7.16,5.44-14.36,9.56-21.61,12.36-8.4,3.16-17.18,5.09-26.34,5.79l.57.53h-62.98l-25.77-83.1h105.36c4.39,0,7.97-2.54,10.73-7.62,2.77-5.08,4.15-11.31,4.15-18.67s-1.39-14.2-4.15-19.46c-2.77-5.26-6.34-7.89-10.73-7.89h-45.52c.38-.7.47-1.58.29-2.63-.19-.7-.43-.96-.72-.79-.29.18-.53.61-.72,1.31-.38.71-.29,1.41.29,2.1h-4.87c.38-.7.57-1.22.57-1.58,0-1.4-.39-2.1-1.15-2.1-.38,0-.76.71-1.14,2.1,0,.35.19.88.57,1.58h-4.29c.38-.7.38-1.4,0-2.1,0-1.75-.48-2.28-1.43-1.58-.77,0-.96,1.05-.57,3.16v.53h-3.72c.38-.7.38-1.4,0-2.1,0-2.1-.48-2.8-1.43-2.1-.96.71-1.24,1.93-.86,3.68v.53h-3.44c.38-1.05.38-2.28,0-3.68-.77-1.4-1.53-1.4-2.29,0-.77.71-.86,1.93-.29,3.68h-3.15c.38-1.05.38-1.92,0-2.63-.19-1.75-.72-2.54-1.57-2.36-.86.18-1.39,1.14-1.58,2.89,0,1.05.1,1.76.29,2.1h-2.86c.57-1.75.38-3.16-.57-4.21-.38-1.05-.96-1.31-1.72-.79-.77.53-1.14,1.67-1.14,3.42,0,.71.1,1.23.29,1.58h-2.58c.57-1.4.47-2.8-.29-4.21-.39-1.05-.96-1.48-1.72-1.31-.77.18-1.34,1.14-1.72,2.89,0,1.05.1,1.93.29,2.63h-2.01c0-2.1-.1-3.5-.29-4.21-.38-1.05-.96-1.58-1.72-1.58s-1.34.53-1.71,1.58c-.39.71-.57,2.1-.57,4.21h-1.43c.38-2.45.1-4.21-.86-5.26-.57-1.05-1.24-1.31-2.01-.79-.77.53-1.34,1.49-1.72,2.89v3.16h-1.14v-1.58c.19-1.4,0-2.63-.57-3.68-.57-1.05-1.14-1.4-1.72-1.05-.96-.34-1.67.18-2.15,1.58-.48,1.41-.62,2.81-.43,4.21v.53h-.86v-1.58c.19-1.4,0-2.63-.57-3.68-.57-1.05-1.24-1.58-2.01-1.58s-1.43.53-2,1.58c-.57,1.05-.77,2.29-.57,3.68v1.58h-.57c.38-1.75.29-3.42-.28-4.99-.57-1.58-1.34-2.37-2.29-2.37s-1.62.53-2.01,1.58-.76,2.1-1.14,3.16c-.38-2.1-1.05-3.68-2.01-4.73,1.34-1.05,2.1-2.8,2.29-5.26.38,2.46.86,3.86,1.43,4.21,1.9,1.41,3.15.71,3.72-2.1.57-1.75.57-3.68,0-5.79-.57-2.1-1.34-2.97-2.29-2.63-1.34-.34-2.39,1.23-3.15,4.73,0-2.1-.67-3.85-2.01-5.26.38-.7.81-1.4,1.29-2.1.47-.7.81-1.58,1-2.63.38,2.1.86,3.51,1.43,4.21,1.9,1.41,3.15.53,3.72-2.63.57-1.75.57-3.59,0-5.52-.57-1.92-1.34-2.89-2.29-2.89s-1.62.53-2.01,1.58-.76,2.1-1.14,3.16c-.38-2.1-1.05-3.68-2.01-4.73,1.34-1.05,2.1-2.81,2.29-5.26.38,2.45.86,3.86,1.43,4.21,1.9,1.4,3.15.7,3.72-2.1.57-1.75.57-3.68,0-5.79-.57-2.1-1.34-2.98-2.29-2.63-1.34-.35-2.39,1.23-3.15,4.73-.19-2.45-.86-4.21-2.01-5.26,1.34-1.05,2.1-2.63,2.29-4.73.38,2.1.86,3.5,1.43,4.21,1.9,1.4,3.15.53,3.72-2.63.57-1.75.57-3.59,0-5.53-.57-1.92-1.34-2.89-2.29-2.89s-1.62.53-2.01,1.58-.76,2.1-1.14,3.16c-.38-2.1-1.05-3.68-2.01-4.73,1.34-1.05,2.1-2.8,2.29-5.26.38,3.51,1.33,5.09,2.86,4.73.76.35,1.43-.08,2.01-1.32.57-1.22.76-2.54.57-3.94.19-1.75,0-3.24-.57-4.47-.57-1.22-1.24-1.66-2.01-1.31-1.53-.35-2.48,1.23-2.86,4.73-.77-2.8-1.53-4.56-2.29-5.26,1.34-1.05,2.1-2.8,2.29-5.26.19,1.05.43,2.1.72,3.16s.72,1.75,1.29,2.1c.95.35,1.81-.08,2.58-1.32.76-1.22,1.05-2.71.86-4.47.19-1.75,0-3.16-.57-4.21-.57-1.05-1.24-1.58-2.01-1.58-1.53,0-2.48,1.58-2.86,4.73-.57-2.45-1.34-4.03-2.29-4.73,1.15-1.4,1.81-2.97,2.01-4.73h.29l.86,3.16c.76,1.41,1.62,1.84,2.58,1.31.95-.53,1.62-1.66,2-3.42V0h.57c.19,1.41.57,2.55,1.14,3.42.57.88,1.24.97,2.01.27.95,0,1.62-1.22,2.01-3.68h.86c.38,3.16,1.43,4.39,3.15,3.68.76-.34,1.33-1.58,1.72-3.68h1.14c.19,1.05.57,2.02,1.14,2.89.57.88,1.14.97,1.72.27.76,0,1.34-1.05,1.72-3.16h1.43c.38,2.81,1.24,3.86,2.58,3.16.76-.34,1.34-1.4,1.72-3.16h1.72c.38,2.46,1.14,3.34,2.29,2.63.76,0,1.33-.87,1.71-2.63h2.01c.38,1.76,1.05,2.63,2.01,2.63.76,0,1.33-.87,1.72-2.63h2.58c.38,2.1,1.05,2.81,2.01,2.1.57-.34.86-1.05.86-2.1h3.15c0,.71.19,1.05.57,1.05,0,.35.38.53,1.15.53.57,0,.86-.53.86-1.58h3.44c.38,1.41.86,1.76,1.43,1.05.19,0,.47-.34.86-1.05h3.72c.38,1.41.86,1.76,1.43,1.05.38,0,.57-.34.57-1.05h4.01c.38,1.05.76,1.23,1.14.53.19,0,.38-.17.57-.53h4.58c0,.35.19.53.57.53l.29-.53h45.52ZM29.77,83.1l.29-.53v.53h-.29ZM39.22,15.78c.95-.35,1.62-1.66,2.01-3.95.38-2.28.09-3.94-.86-4.99-.57-1.75-1.39-2.28-2.43-1.58-1.05.71-1.67,2.1-1.86,4.21-.38,1.76-.19,3.42.57,4.99.76,1.58,1.62,2.02,2.58,1.32ZM41.23,22.62c.19-1.75,0-3.16-.57-4.21-.57-1.05-1.24-1.4-2.01-1.05-.77-.35-1.43,0-2,1.05-.57,1.05-.77,2.46-.57,4.21-.19,1.75.1,3.16.86,4.21s1.53,1.23,2.29.53c.57,0,1.09-.53,1.57-1.58.47-1.05.62-2.1.43-3.16ZM41.23,34.19c.19-1.4,0-2.63-.57-3.68-.57-1.05-1.24-1.58-2.01-1.58-.77-.35-1.43.09-2,1.31-.57,1.23-.77,2.55-.57,3.95-.19,1.75.1,3.24.86,4.47.76,1.23,1.53,1.49,2.29.79.57-.35,1.09-.96,1.57-1.84.47-.87.62-2.01.43-3.42ZM41.23,46.29c.19-1.75,0-3.16-.57-4.21s-1.24-1.4-2.01-1.05c-.77-.35-1.43,0-2,1.05-.57,1.05-.77,2.45-.57,4.21-.19,1.75.1,3.16.86,4.21s1.53,1.4,2.29,1.05c.57-.35,1.09-1.05,1.57-2.1.47-1.05.62-2.1.43-3.16ZM41.23,57.85c.19-1.4,0-2.62-.57-3.68s-1.24-1.58-2.01-1.58c-.77-.35-1.43.09-2,1.31-.57,1.23-.77,2.55-.57,3.94-.19,1.76.1,3.25.86,4.47.76,1.23,1.53,1.49,2.29.79.57-.34,1.09-.96,1.57-1.84.47-.87.62-2.02.43-3.42ZM41.23,69.95c.19-1.75,0-3.16-.57-4.21-.57-1.05-1.24-1.4-2.01-1.05-.77-.34-1.43,0-2,1.05-.57,1.05-.77,2.46-.57,4.21-.19,1.76.1,3.16.86,4.21.76,1.05,1.53,1.41,2.29,1.05.57-.34,1.09-1.05,1.57-2.1.47-1.05.62-2.1.43-3.16ZM45.24,38.92c.76-.35,1.29-1.23,1.57-2.63.29-1.4.24-2.8-.14-4.21-.38-2.1-1.14-3.07-2.29-2.9-1.14.18-1.91,1.32-2.29,3.42-.38,1.75-.19,3.42.57,4.99.76,1.58,1.62,2.02,2.58,1.32ZM45.24,27.35c.76-.35,1.29-1.32,1.57-2.9.29-1.58.24-3.06-.14-4.47-.38-1.4-.91-2.28-1.58-2.63-.67-.35-1.29-.17-1.86.53-1.14,1.41-1.53,3.33-1.14,5.79.38,3.16,1.43,4.38,3.15,3.68ZM44.09,5.79c-1.72.71-2.39,2.81-2.01,6.31.38,3.51,1.43,4.56,3.15,3.16.76-.35,1.29-1.22,1.57-2.63.29-1.4.24-2.8-.14-4.21-.38-2.45-1.24-3.33-2.58-2.63ZM44.95,51.02c1.34-.7,2.01-2.28,2.01-4.73.19-1.75,0-3.07-.57-3.95-.57-.87-1.14-1.31-1.72-1.31-.96,0-1.67.61-2.15,1.84-.48,1.23-.62,2.72-.43,4.47.38,3.16,1.34,4.38,2.86,3.68ZM44.95,62.59c1.34,0,2.01-1.58,2.01-4.73.19-1.4,0-2.62-.57-3.68-.57-1.05-1.14-1.4-1.72-1.05-.96-.35-1.67.09-2.15,1.31-.48,1.23-.62,2.72-.43,4.47.19,1.41.57,2.55,1.14,3.42.57.88,1.14.97,1.72.26ZM46.95,69.95c.19-1.75,0-3.06-.57-3.94-.57-.87-1.14-1.32-1.72-1.32-.96,0-1.67.62-2.15,1.84-.48,1.23-.62,2.72-.43,4.47.38,3.16,1.34,4.39,2.86,3.68,1.34-.7,2.01-2.28,2.01-4.73ZM48.1,8.94c-.38,1.76-.24,3.33.43,4.73.67,1.41,1.38,1.93,2.15,1.58.95,0,1.62-1.22,2.01-3.68.38-2.1.1-3.68-.86-4.73-.57-1.05-1.24-1.32-2.01-.79-.77.53-1.34,1.5-1.72,2.9ZM48.1,21.04c-.38,1.75-.24,3.33.43,4.73.67,1.41,1.38,1.75,2.15,1.05.95,0,1.62-1.05,2.01-3.16.38-2.45.1-4.21-.86-5.26-.57-1.05-1.24-1.32-2.01-.79-.77.53-1.34,1.67-1.72,3.42ZM52.68,35.24c.19-1.75-.1-3.33-.86-4.73-.57-1.05-1.24-1.32-2.01-.79-.77.53-1.34,1.49-1.72,2.9-.38,1.75-.24,3.33.43,4.73.67,1.4,1.38,1.93,2.15,1.58.95-.35,1.62-1.58,2.01-3.68ZM52.68,46.81c.19-1.4-.1-2.98-.86-4.73-.57-1.05-1.24-1.32-2.01-.79-.77.53-1.34,1.67-1.72,3.42-.38,1.75-.24,3.33.43,4.73.67,1.4,1.38,1.75,2.15,1.05.95,0,1.62-1.23,2.01-3.68ZM50.67,62.59c.95-.34,1.62-1.58,2.01-3.68.38-2.1.1-3.68-.86-4.73-.57-1.05-1.24-1.32-2.01-.79-.77.53-1.34,1.49-1.72,2.9-.38,1.75-.24,3.33.43,4.73.67,1.41,1.38,1.93,2.15,1.58ZM50.67,74.16c.95,0,1.62-1.13,2.01-3.42.38-2.28.1-3.95-.86-5-.57-.7-1.24-.87-2.01-.53-.77.35-1.34,1.41-1.72,3.16-.38,1.76-.24,3.34.43,4.73.67,1.41,1.38,1.76,2.15,1.05ZM56.4,74.16c.96,0,1.58-.79,1.86-2.36s.24-3.07-.15-4.47c-.38-1.4-.96-2.1-1.72-2.1s-1.34.71-1.71,2.1c-.77,1.41-.91,2.98-.43,4.73.48,1.76,1.19,2.46,2.15,2.1ZM54.4,8.42c-.39,1.76-.34,3.42.14,4.99.47,1.58,1.19,2.02,2.15,1.32.95,0,1.53-.96,1.72-2.9.19-1.92,0-3.42-.57-4.47-.39-1.05-.96-1.49-1.72-1.32-.77.18-1.34.97-1.72,2.37ZM54.4,20.51c-.39,1.41-.34,2.89.14,4.47.47,1.58,1.19,2.2,2.15,1.84.95-.35,1.53-1.4,1.72-3.16.19-1.75,0-3.16-.57-4.21-.39-1.05-.96-1.49-1.72-1.32-.77.18-1.34.97-1.72,2.37ZM54.4,32.08c-.39,1.75-.34,3.42.14,4.99.47,1.58,1.19,2.02,2.15,1.32.95,0,1.53-.96,1.72-2.9.19-1.92,0-3.42-.57-4.47-.39-1.05-.96-1.49-1.72-1.32-.77.18-1.34.97-1.72,2.37ZM54.4,44.18c-.39,1.4-.34,2.89.14,4.47.47,1.58,1.19,2.19,2.15,1.84.95-.35,1.53-1.4,1.72-3.16.19-1.75,0-3.16-.57-4.21-.39-1.05-.96-1.49-1.72-1.32-.77.18-1.34.97-1.72,2.37ZM54.4,56.28c-.39,1.4-.34,2.89.14,4.47.47,1.58,1.19,2.02,2.15,1.31.95,0,1.53-.96,1.72-2.89.19-1.92,0-3.42-.57-4.47-.57-1.05-1.19-1.4-1.86-1.05s-1.19,1.23-1.57,2.63ZM64.13,12.1c.38-2.8-.1-4.55-1.43-5.26-.76-.7-1.48-.44-2.15.79-.67,1.23-.81,2.55-.43,3.95.19,2.1.95,3.16,2.29,3.16.95-.7,1.52-1.58,1.71-2.63ZM64.13,23.67c.19-.7.15-1.66-.14-2.9-.29-1.22-.72-2.01-1.29-2.36-.76-.7-1.48-.44-2.15.79-.67,1.23-.81,2.72-.43,4.47.38,2.46,1.14,3.33,2.29,2.63.76,0,1.33-.87,1.71-2.63ZM64.13,35.77c.38-2.8-.1-4.56-1.43-5.26-.76-.7-1.48-.44-2.15.79-.67,1.23-.81,2.55-.43,3.95.19,2.1.95,3.16,2.29,3.16.95-.7,1.52-1.58,1.71-2.63ZM64.13,47.34c.38-2.1-.1-3.86-1.43-5.26-.76-.7-1.48-.44-2.15.79-.67,1.23-.81,2.72-.43,4.47.38,2.45,1.14,3.33,2.29,2.63.76,0,1.33-.87,1.71-2.63ZM62.41,62.06c1.52-.7,2.1-2.45,1.71-5.25-.19-1.75-.76-2.81-1.71-3.16-.96-.35-1.63.35-2.01,2.1-.57,1.4-.62,2.89-.15,4.47.48,1.58,1.19,2.19,2.15,1.84ZM62.41,73.63c1.52,0,2.1-1.75,1.71-5.26-.19-1.75-.76-2.71-1.71-2.89-.96-.17-1.63.44-2.01,1.84-.57,1.41-.62,2.9-.15,4.47.48,1.58,1.19,2.19,2.15,1.84ZM66.13,9.47c-.19,1.41-.05,2.63.43,3.68.47,1.05,1,1.41,1.58,1.05.57,0,1.04-.7,1.43-2.1.38-1.4.38-2.63,0-3.68-.39-1.4-1-1.92-1.86-1.58-.86.35-1.39,1.23-1.57,2.63ZM68.14,26.3c.57,0,1.04-.7,1.43-2.1.38-1.4.38-2.63,0-3.68-.77-2.8-1.72-3.16-2.86-1.05-.57,1.05-.72,2.55-.43,4.47.29,1.93.91,2.72,1.86,2.37ZM68.14,37.87c.57,0,1.04-.61,1.43-1.84.38-1.22.38-2.36,0-3.42-.39-1.05-.86-1.75-1.43-2.1-.57-.35-1.05,0-1.43,1.05-.57,1.05-.72,2.46-.43,4.21.29,1.75.91,2.45,1.86,2.1ZM68.14,49.97c.57,0,1.04-.7,1.43-2.1.38-1.4.38-2.63,0-3.68-.77-2.81-1.72-3.16-2.86-1.05-.57,1.05-.72,2.55-.43,4.47.29,1.93.91,2.72,1.86,2.37ZM68.14,61.53c.57,0,1.04-.7,1.43-2.1.38-1.4.38-2.62,0-3.68-.77-2.45-1.72-2.63-2.86-.53-.57,1.05-.72,2.45-.43,4.2.29,1.76.91,2.46,1.86,2.1ZM68.14,73.63c.57,0,1.04-.7,1.43-2.1.38-1.4.38-2.63,0-3.68-.77-2.8-1.72-3.16-2.86-1.05-.57,1.05-.72,2.55-.43,4.47.29,1.93.91,2.72,1.86,2.36ZM74.44,25.77c1.33-1.4,1.52-3.33.57-5.79-.38-.7-.91-.96-1.57-.79-.67.18-1.1.97-1.29,2.37-.19,1.41,0,2.55.57,3.42.57.88,1.14,1.15,1.72.79ZM74.44,37.34c.57-.35.9-1.14,1-2.37.1-1.22-.05-2.19-.43-2.89-.38-1.05-.91-1.4-1.57-1.05-.67.35-1.1,1.23-1.29,2.63-.19,1.05,0,2.1.57,3.16.57,1.05,1.14,1.23,1.72.53ZM74.44,49.44c1.14-1.4,1.43-2.98.86-4.73-.19-1.4-.72-2.1-1.57-2.1s-1.39.87-1.58,2.63c-.19,1.4,0,2.55.57,3.42.57.88,1.14,1.14,1.72.79ZM74.44,61.01c1.33-.7,1.62-2.1.86-4.2-.19-1.75-.72-2.54-1.57-2.37-.86.18-1.39,1.14-1.58,2.9-.19,1.05,0,2.1.57,3.15.57,1.05,1.14,1.23,1.72.53ZM74.44,73.11c1.14-1.4,1.43-2.97.86-4.73-.19-1.4-.72-2.1-1.57-2.1s-1.39.88-1.58,2.63c-.19,1.41,0,2.55.57,3.42.57.88,1.14,1.14,1.72.79ZM72.43,8.94c-.38,1.41-.34,2.72.14,3.94.47,1.23,1.1,1.49,1.86.79,1.33-.7,1.62-2.1.86-4.21-.19-1.4-.62-2.19-1.29-2.37-.67-.17-1.19.45-1.57,1.84ZM80.16,13.15c.57-.34.95-1.05,1.14-2.1.19-1.05.1-1.92-.29-2.63-.57-1.05-1.34-1.22-2.29-.53-1.15,2.1-1.05,3.86.28,5.26.38.7.76.7,1.15,0ZM80.16,37.34c1.33-1.4,1.62-3.16.86-5.26-.57-1.05-1.34-1.22-2.29-.53-1.15,2.1-1.05,3.86.28,5.26.19.35.57.53,1.15.53ZM80.16,61.01c.57-.34.95-1.13,1.14-2.36.19-1.22.1-2.19-.29-2.89-.57-1.05-1.34-1.23-2.29-.53-1.15,2.1-1.05,3.86.28,5.25.19.35.57.53,1.15.53ZM80.16,25.25c.57-.35.95-1.05,1.14-2.1.19-1.05.1-1.93-.29-2.63-.77-1.75-1.53-1.93-2.29-.53-.39.7-.53,1.58-.43,2.63s.33,1.75.72,2.1c0,.35.38.53,1.15.53ZM80.16,48.92c.57-.35.95-1.05,1.14-2.1.19-1.05.1-1.93-.29-2.63-.96-1.4-1.72-1.58-2.29-.53-.39.7-.53,1.58-.43,2.63s.33,1.93.72,2.63h1.15ZM80.16,72.58c.57-.34.95-1.05,1.14-2.1.19-1.05.1-1.92-.29-2.63-.96-1.4-1.72-1.58-2.29-.53-.39.71-.53,1.58-.43,2.63s.33,1.93.72,2.63h1.15ZM85.89,13.15c.95-.7,1.24-1.75.86-3.16,0-2.1-.48-2.8-1.43-2.1-.96.71-1.24,1.93-.86,3.68,0,.7.14,1.23.43,1.58.29.35.62.35,1,0ZM85.89,24.72c.95,0,1.24-1.05.86-3.16,0-1.75-.48-2.28-1.43-1.58-.96,0-1.24,1.05-.86,3.16,0,2.1.47,2.63,1.43,1.58ZM85.89,36.82c.95-.7,1.24-1.75.86-3.16,0-2.1-.48-2.8-1.43-2.1-.96.7-1.24,1.93-.86,3.68,0,.7.14,1.23.43,1.58s.62.35,1,0ZM85.89,48.39c.95,0,1.24-1.05.86-3.16,0-1.75-.48-2.28-1.43-1.58-.96.7-1.24,1.75-.86,3.16,0,2.1.47,2.63,1.43,1.58ZM85.89,60.48c.95-.7,1.24-1.75.86-3.15,0-2.1-.48-2.81-1.43-2.1-.96.7-1.24,1.93-.86,3.68,0,.71.14,1.23.43,1.58.29.35.62.35,1,0ZM85.89,72.58c.95-.7,1.24-1.92.86-3.68,0-1.75-.48-2.28-1.43-1.58-.96.71-1.24,1.76-.86,3.16,0,2.46.47,3.16,1.43,2.1ZM91.9,12.62c.76,0,.95-.87.57-2.63,0-1.75-.48-2.28-1.43-1.58-.77,0-.96,1.05-.57,3.16,0,1.75.47,2.1,1.43,1.05ZM91.9,24.72c.76-.7.95-1.75.57-3.16,0-1.75-.48-2.28-1.43-1.58-.77.7-.96,1.75-.57,3.16,0,.7.14,1.23.43,1.58.29.35.62.35,1,0ZM91.9,36.29c.76,0,.95-.87.57-2.63,0-1.75-.48-2.28-1.43-1.58-.77,0-.96,1.05-.57,3.16,0,1.75.47,2.1,1.43,1.05ZM91.9,48.39c.76-.7.95-1.75.57-3.16,0-1.75-.48-2.28-1.43-1.58-.77.7-.96,1.75-.57,3.16,0,.7.14,1.23.43,1.58s.62.35,1,0ZM91.9,59.96c.76,0,.95-.87.57-2.62,0-1.75-.48-2.28-1.43-1.58-.77,0-.96,1.05-.57,3.15,0,1.76.47,2.1,1.43,1.05ZM91.9,72.05c.57-.7.76-1.75.57-3.16,0-1.75-.48-2.28-1.43-1.58-.77.71-.96,1.76-.57,3.16,0,2.1.47,2.63,1.43,1.58ZM97.63,12.62c.57-1.05.86-1.75.86-2.1,0-1.4-.39-2.1-1.15-2.1-.38,0-.76.71-1.14,2.1.57,1.75,1.05,2.46,1.43,2.1ZM97.63,24.19c.57,0,.86-.53.86-1.58,0-1.4-.39-2.1-1.15-2.1-.38,0-.76.7-1.14,2.1.38,1.41.86,1.93,1.43,1.58ZM97.63,36.29c.57-1.05.86-1.75.86-2.1,0-1.4-.39-2.1-1.15-2.1-.38,0-.76.7-1.14,2.1.57,1.75,1.05,2.45,1.43,2.1ZM97.63,47.86c.57,0,.86-.53.86-1.58,0-1.4-.39-2.1-1.15-2.1-.38,0-.76.7-1.14,2.1.38,1.4.86,1.93,1.43,1.58ZM97.63,59.96c.57-1.05.86-1.75.86-2.1,0-1.4-.39-2.1-1.15-2.1-.38,0-.76.7-1.14,2.1.57,1.76,1.05,2.46,1.43,2.1ZM97.63,71.53c.57,0,.86-.53.86-1.58,0-1.4-.39-2.1-1.15-2.1-.38,0-.76.71-1.14,2.1.38,1.41.86,1.93,1.43,1.58ZM103.35,8.94c-.57-.34-.86.18-.86,1.58,0,1.05.29,1.58.86,1.58.38,0,.57-.34.57-1.05.38-.7.19-1.4-.57-2.1ZM103.35,20.51c-.57,0-.86.7-.86,2.1,0,1.05.29,1.58.86,1.58l.57-1.05c.38-1.05.19-1.93-.57-2.63ZM103.35,35.77c.57,0,.86-.53.86-1.58-.39-1.4-.77-1.93-1.14-1.58-.39,0-.57.53-.57,1.58,0,1.75.29,2.28.86,1.58ZM104.21,46.29c0-1.4-.39-2.1-1.14-2.1-.39.35-.57,1.05-.57,2.1s.29,1.58.86,1.58l.86-1.58ZM103.35,59.43c.19,0,.47-.53.86-1.58,0-.7-.15-1.22-.43-1.57-.29-.35-.53-.35-.72,0-.39,0-.57.53-.57,1.57,0,1.76.29,2.29.86,1.58ZM104.21,69.95c0-1.4-.39-2.1-1.14-2.1-.39.35-.57,1.05-.57,2.1s.29,1.58.86,1.58l.86-1.58ZM105.93,282.96c0,.35.09.53.28.53,0-.34-.1-.53-.28-.53ZM109.08,12.1c.76-.7.95-1.4.57-2.1-.38-1.4-.77-1.4-1.14,0-.19.35-.19.79,0,1.31.19.53.38.79.57.79ZM109.08,23.67c.76,0,.95-.7.57-2.1-.57-1.05-.96-1.05-1.14,0-.19.7-.19,1.31,0,1.84.19.53.38.62.57.27ZM109.08,35.77c.76-.7.95-1.4.57-2.1-.38-1.4-.77-1.4-1.14,0-.19.35-.19.79,0,1.31.19.53.38.79.57.79ZM109.08,47.34c.76,0,.95-.7.57-2.1-.57-1.05-.96-1.05-1.14,0-.19.7-.19,1.31,0,1.84.19.53.38.61.57.27ZM109.08,59.43c.76-.7.95-1.4.57-2.1-.38-1.4-.77-1.4-1.14,0-.19.35-.19.79,0,1.31.19.53.38.79.57.79ZM109.36,71c.38-.7.47-1.4.29-2.1-.19-.7-.48-.7-.86,0-.39.35-.48.97-.29,1.84.19.88.47.97.86.26ZM109.36,82.57c.38-.34.47-.96.29-1.84-.19-.87-.48-.96-.86-.27-.39.71-.48,1.41-.29,2.1.19.71.47.71.86,0ZM109.36,292.96c0,.35.1.53.29.53,0-.34-.1-.53-.29-.53ZM112.8,302.95c.19.35.38.53.57.53-.19-.34-.39-.53-.57-.53ZM114.81,287.7c0-.34-.1-.7-.29-1.05l-.57.53.57,1.05.29-.53ZM114.52,11.57h.86v-1.58h-.86v1.58ZM114.52,23.14h.86v-1.58h-.86v1.58ZM114.52,35.24h.86v-1.58h-.86v1.58ZM114.52,46.81h.86v-1.58h-.86v1.58ZM114.52,58.9h.86v-1.57h-.86v1.57ZM114.52,70.48h.86v-1.58h-.86v1.58ZM115.38,82.57c0-1.05-.1-1.75-.28-2.1-.2,0-.29.09-.29.27,0,.18-.1.26-.29.26v1.58h.86ZM116.81,313.47l-.28-.53c0,.35.09.53.28.53ZM117.96,298.22c0-.34.19-.53.57-.53l-.57-1.05-.29.53c0,.35.1.71.29,1.05ZM119.39,282.44c.19,0,.29-.08.29-.26,0-.17.09-.27.28-.27,0-.34-.19-.87-.57-1.58l-.57,1.05.57,1.05ZM119.96,322.94c0,.35.1.35.29,0h-.29ZM121.11,9.99h-.57v1.05h.57v-1.05ZM121.11,21.56h-.57v1.58h.57v-1.58ZM121.11,33.66h-.57v1.05h.57v-1.05ZM121.11,45.76h-.57v1.05h.57v-1.05ZM121.11,57.33h-.57v1.05h.57v-1.05ZM121.11,69.42h-.57v1.05h.57v-1.05ZM121.11,81h-.57v1.05h.57v-1.05ZM121.39,308.21c.19-.34.38-.53.57-.53-.19-.34-.29-.7-.29-1.05-.38,0-.57.18-.57.53l.28,1.05ZM122.82,292.43c.19,0,.38-.17.57-.53,0-.34-.05-.6-.14-.79-.1-.17-.15-.44-.15-.79-.19.35-.33.53-.43.53s-.24.18-.43.53l.57,1.05ZM123.39,332.93c0,.35.05.53.14.53s.15-.17.15-.53-.05-.53-.15-.53-.14.18-.14.53ZM124.82,318.21c.19-.34.38-.53.57-.53,0-.34-.1-.7-.29-1.05-.19,0-.38.18-.57.53l.29,1.05ZM126.26,302.43c.19,0,.33-.08.43-.26.1-.17.24-.27.43-.27-.39-.7-.57-1.22-.57-1.58l-.57,1.05.29,1.05ZM126.83,11.05c0-.7-.1-.87-.29-.53,0,.35.1.53.29.53ZM126.83,22.62c0-.35-.1-.53-.29-.53,0,.35.1.53.29.53ZM126.83,34.71c0-.7-.1-.87-.29-.53,0,.35.1.53.29.53ZM126.83,46.29c0-.35-.1-.53-.29-.53,0,.35.1.53.29.53ZM126.83,58.38c0-.7-.1-.87-.29-.53,0,.35.1.53.29.53ZM126.83,69.95c0-.34-.1-.53-.29-.53,0,.35.1.53.29.53ZM126.83,82.05c0-.7-.1-.87-.29-.53,0,.35.1.53.29.53ZM126.83,342.93c0,.35.05.53.14.53s.15-.17.15-.53-.1-.34-.29,0ZM127.4,286.65c.76.71,1.15.35,1.15-1.05,0-.7-.15-1.13-.43-1.31-.28-.17-.52-.08-.72.26-.19.35-.28.79-.28,1.32s.09.79.28.79ZM128.55,328.2c0-.34.05-.53.14-.53s.14-.17.14-.53l-.28-.53c-.2,0-.39.18-.57.53l.57,1.05ZM129.41,310.84c0,.35.05.62.15.79.09.18.14.44.14.79.19,0,.33-.08.43-.26.1-.17.24-.27.43-.27-.19-.34-.28-.6-.28-.79,0-.17-.1-.44-.29-.79-.19,0-.29.09-.29.27,0,.18-.1.26-.29.26ZM130.27,352.92c.19.35.38.35.57,0-.19-.34-.38-.34-.57,0ZM131.12,296.64c.57,1.05.86.71.86-1.05.19-.7.1-1.13-.28-1.31-.39-.17-.68-.08-.86.26-.38.71-.29,1.41.29,2.1ZM131.98,337.67l.29-.53-.29-1.05c0,.35-.05.53-.14.53-.1,0-.14.18-.14.53l.28.53ZM131.98,280.86c.57,1.05,1.05,1.05,1.43,0,.19-.34.19-1.05,0-2.1-.57-.7-.96-.87-1.14-.53-.19.71-.29,1.58-.29,2.63ZM133.41,322.41l.57-1.05-.57-1.05-.57.53c.19.35.29.62.29.79s.09.44.28.79ZM134.56,306.63c.19.35.43.45.72.27.29-.17.33-.61.14-1.32.19-.7.15-1.13-.14-1.31-.29-.17-.62-.08-1,.26-.38.71-.29,1.41.29,2.1ZM135.42,347.66c.19,0,.38-.17.57-.53l-.57-1.05c0,.35-.1.53-.29.53,0,.35.1.71.29,1.05ZM135.71,288.22c-.19,1.05-.19,1.93,0,2.63.57,1.05.95,1.05,1.14,0,.19-.34.19-1.05,0-2.1-.57-.7-.96-.87-1.14-.53ZM137.42,331.35l-.29-1.05c-.19,0-.34.09-.43.27-.1.18-.24.26-.43.26.19.35.28.62.28.79s.1.44.29.79l.57-1.05ZM137.99,316.63c.76.71,1.15.35,1.15-1.05s-.48-1.75-1.43-1.05c0,1.41.09,2.1.28,2.1ZM138.85,357.65c.19,0,.38-.17.57-.53l-.28-1.05c-.2.35-.39.53-.57.53,0,.35.1.71.29,1.05ZM139.14,298.22c0,.35-.05.62-.15.79-.1.18-.14.44-.14.79,0,1.05.38,1.58,1.14,1.58.38,0,.57-.87.57-2.63-.57-1.05-1.05-1.22-1.43-.53ZM140.29,342.4l.57-1.05c0-.34-.05-.53-.15-.53s-.14-.17-.14-.53c-.19,0-.34.09-.43.27-.1.18-.24.26-.43.26.38.71.57,1.23.57,1.58ZM140.29,282.44c0,.35-.05.71-.15,1.05-.1.35-.05.88.15,1.58.57,1.05,1.05,1.23,1.43.53.57-.34.67-1.22.29-2.63-.39-1.75-.96-1.92-1.72-.53ZM142.57,325.57c0-.7-.14-1.22-.43-1.58-.29-.34-.53-.17-.72.53-.38.71-.38,1.41,0,2.1.76.71,1.14.35,1.14-1.05ZM143.44,311.37c.76,0,.95-.87.57-2.63-.38-.7-.86-.87-1.43-.53v1.58c0,1.05.29,1.58.86,1.58ZM143.72,352.39c.19-.34.33-.53.43-.53.09,0,.24-.17.43-.53l-.57-1.05c-.19,0-.38.18-.57.53,0,.35.05.61.14.79s.15.44.15.79ZM144.01,292.43c-.19.35-.28,1.23-.28,2.63.76.71,1.33.88,1.71.53.38-.7.38-1.58,0-2.63-.57-1.75-1.05-1.92-1.43-.53ZM146.01,335.56c.19-.7.1-1.22-.29-1.58-.38-.34-.67-.17-.86.53-.38.71-.29,1.41.29,2.1.57,1.05.86.71.86-1.05ZM146.3,318.21c-.38.71-.53,1.32-.43,1.84.09.53.33.79.72.79.38.71.67.71.86,0,.19-.7.19-1.4,0-2.1-.57-.7-.96-.87-1.14-.53ZM147.44,302.43c-.38.71-.38,1.41,0,2.1.38,1.41.86,1.76,1.43,1.05.57-1.05.67-1.92.29-2.63-.77-1.4-1.34-1.58-1.72-.53ZM149.45,345.56c.19-.7.09-1.22-.29-1.58-.38-.34-.67-.17-.86.53-.39.71-.29,1.41.28,2.1.57,1.05.86.71.86-1.05ZM148.59,286.65c-.57,1.05-.48,2.1.29,3.16.76,1.41,1.34,1.23,1.72-.53.57-.7.47-1.75-.29-3.16-.77-1.4-1.34-1.22-1.72.53ZM150.02,330.83c.38.35.67.27.86-.26.19-.53.19-1.14,0-1.84-.57-.7-.96-.87-1.14-.53-.39.71-.53,1.32-.43,1.84s.33.79.72.79ZM152.6,312.95c-.39-1.75-.96-1.92-1.72-.53-.38.71-.38,1.41,0,2.1.38,1.41.86,1.76,1.43,1.05.76-.7.86-1.58.29-2.63ZM153.17,355.55c0-1.75-.48-2.28-1.43-1.58-.38,1.41-.29,2.29.29,2.63.76.71,1.14.35,1.14-1.05ZM152.02,296.64c-.57,1.05-.48,2.1.29,3.16.76.71,1.33.53,1.72-.53.57-.7.47-1.75-.29-3.16-.38-1.05-.96-.87-1.72.53ZM153.74,340.82c.38.35.67.27.86-.26s.19-1.14,0-1.84c-.76-.7-1.24-.87-1.43-.53-.57,1.76-.38,2.63.57,2.63ZM153.45,280.33c-.38,1.41-.29,2.63.29,3.68.57,1.41,1.24,1.41,2.01,0,.38-1.4.28-2.63-.29-3.68-.77-1.05-1.43-1.05-2.01,0ZM155.75,325.57c.57-.7.67-1.75.28-3.16-.57-1.05-1.14-1.05-1.71,0-.39.71-.39,1.41,0,2.1.38,1.76.86,2.1,1.43,1.05ZM157.47,306.11c-.57-1.05-1.15-1.05-1.72,0-.57,1.05-.48,2.29.28,3.68.38,1.05.96.88,1.72-.53.38-.7.29-1.75-.28-3.16ZM157.18,350.82c.38.35.67.27.86-.26.19-.53.19-1.14,0-1.84-.38-.7-.86-.87-1.43-.53-.19.35-.24.88-.14,1.58.09.71.33,1.05.72,1.05ZM156.89,290.33c-.38,1.41-.29,2.63.29,3.68.57,1.41,1.24,1.41,2,0,.57-1.75.47-2.97-.28-3.68-.77-1.05-1.43-1.05-2.01,0ZM159.18,335.56c.57-.7.67-1.75.29-3.16-.57-1.75-1.05-1.75-1.43,0-.57,1.05-.67,1.76-.29,2.1.38,1.76.86,2.1,1.43,1.05ZM158.32,274.55c-.38.71-.48,1.58-.29,2.63.19,1.05.57,1.76,1.14,2.1.76.71,1.34,0,1.72-2.1.38-.7.33-1.48-.14-2.36-.48-.87-.91-1.32-1.29-1.32-.19-.34-.57,0-1.14,1.05ZM159.47,319.78c.57.71,1.14.53,1.72-.53.38-1.4.29-2.45-.29-3.16-.77-1.4-1.34-1.4-1.72,0-.57,1.05-.48,2.29.29,3.68ZM162.33,300.32c-.77-1.4-1.34-1.4-1.72,0-.76,1.41-.76,2.63,0,3.68.95,1.76,1.62,1.76,2.01,0,.76-1.4.67-2.63-.29-3.68ZM162.9,345.56c.38-1.4.47-2.45.29-3.16-.77-1.4-1.34-1.4-1.72,0-.38.71-.38,1.41,0,2.1.19.71.67,1.05,1.43,1.05ZM161.76,284.54c-.39.71-.43,1.5-.15,2.37.29.88.62,1.67,1,2.36.95.71,1.62,0,2.01-2.1.38-2.1-.19-3.5-1.72-4.21-.19,0-.57.53-1.14,1.58ZM162.62,231.95c.57,1.05,1.29,1.31,2.15.79.86-.53,1.19-1.66,1-3.42.19-1.75-.19-3.07-1.14-3.95-.96-.87-1.72-.79-2.29.27-1.14,2.1-1.05,4.21.29,6.31ZM162.9,329.78c.76.71,1.33.53,1.72-.53.38-1.4.29-2.45-.29-3.16-.77-1.4-1.34-1.4-1.72,0-.38,1.41-.29,2.63.29,3.68ZM163.19,268.24c-.39.71-.48,1.67-.29,2.9.19,1.23.57,2.02,1.14,2.36.57.71,1.14.53,1.72-.53s.67-2.28.29-3.68c-.39-1.05-.86-1.66-1.43-1.84-.57-.17-1.05.09-1.43.79ZM165.77,310.32c-.19-.7-.48-1.05-.86-1.05s-.68.35-.86,1.05c-.77,1.41-.67,2.63.29,3.68.95.71,1.53.53,1.72-.53.38-.34.52-.87.43-1.58-.1-.7-.34-1.22-.72-1.58ZM166.34,355.02c.38-.7.47-1.58.28-2.63-.76-1.05-1.34-1.22-1.71-.53-.39,1.05-.39,1.93,0,2.63.19,1.05.67,1.23,1.43.53ZM165.19,294.54c-.38.71-.43,1.5-.14,2.37.29.88.61,1.49,1,1.84.95.71,1.62.18,2-1.58.19-.7.1-1.58-.28-2.63-.39-1.05-.86-1.58-1.43-1.58s-.96.53-1.15,1.58ZM165.19,239.31c.19,1.05.52,2.02,1,2.89.47.88,1,.97,1.58.27.95,0,1.48-.87,1.57-2.63.1-1.75-.14-2.98-.72-3.68-.96-1.75-1.91-1.93-2.86-.53-.38,1.41-.57,2.63-.57,3.68ZM168.05,339.24c.76-1.4.67-2.45-.28-3.16-.39-1.4-.96-1.4-1.72,0-.39,1.41-.29,2.46.29,3.16.76,1.41,1.33,1.41,1.71,0ZM166.62,278.23c-.57,1.76-.48,3.34.29,4.73.57.71,1.19.79,1.86.27.67-.53.9-1.49.72-2.9,0-1.75-.39-2.8-1.15-3.16-.77-.34-1.34,0-1.72,1.05ZM167.77,323.99c.95.71,1.62.53,2-.53.57-1.05.47-2.28-.28-3.68-.77-.7-1.44-.53-2.01.53-.38,1.41-.29,2.63.29,3.68ZM168.05,261.4c-.38.71-.57,1.76-.57,3.16s.38,2.46,1.14,3.16c.38.71.86.79,1.43.27.57-.53.95-1.32,1.14-2.37.38-1.75.15-3.16-.72-4.21-.86-1.05-1.67-1.05-2.43,0ZM170.06,302.95c-.57,0-1.05.35-1.43,1.05-.77,2.46-.48,4.04.86,4.73.95.71,1.62.18,2-1.58.19-.7.1-1.58-.29-2.63s-.76-1.58-1.14-1.58ZM172.07,246.15c-.96-1.75-1.82-1.93-2.58-.53-.77,1.4-.96,2.63-.57,3.68,0,1.05.29,1.93.86,2.63.57.7,1.05.87,1.43.53.95,0,1.53-.87,1.72-2.63s-.1-2.98-.86-3.68ZM171.49,349.24c.76-1.4.67-2.45-.29-3.16-.57-1.75-1.05-1.75-1.43,0-.57,1.05-.57,2.1,0,3.16.76,1.41,1.34,1.41,1.72,0ZM173.21,290.33c-.19-1.75-.67-2.8-1.43-3.16-.77-.34-1.34,0-1.72,1.05-.38.71-.48,1.5-.29,2.37.19.88.47,1.67.86,2.36.38.71.95.79,1.72.27.76-.53,1.04-1.49.86-2.9ZM170.63,229.85c-.57,1.05-.77,2.46-.57,4.21.19,1.75.76,2.81,1.72,3.16.76.35,1.43.09,2.01-.79.57-.87.76-2.01.57-3.42,0-1.75-.48-3.07-1.43-3.95-.96-.87-1.72-.61-2.29.79ZM173.21,333.46c.38-1.4.29-2.63-.29-3.68-.96-.7-1.62-.53-2,.53-.57,1.05-.48,2.29.28,3.68.76.71,1.43.53,2.01-.53ZM174.64,273.5c-.19-1.05-.62-1.84-1.29-2.36s-1.19-.44-1.57.26c-.57.71-.86,1.76-.86,3.16s.38,2.46,1.14,3.16c.76.71,1.48.53,2.15-.53.67-1.05.81-2.28.43-3.68ZM173.21,318.73c.76.71,1.34.18,1.72-1.58.19-.7.1-1.58-.29-2.63s-.77-1.58-1.14-1.58-.77.35-1.14,1.05c-.39.71-.48,1.58-.29,2.63.19,1.05.57,1.76,1.14,2.1ZM175.5,255.62c-.96-1.4-1.82-1.4-2.58,0-.57,1.05-.77,2.28-.57,3.68.38,2.81,1.24,3.86,2.58,3.15.76,0,1.24-.87,1.43-2.62.19-1.75-.1-3.16-.86-4.21ZM174.07,302.95c.57.71,1.19.71,1.86,0,.67-.7.9-1.75.72-3.16-.19-1.4-.67-2.28-1.43-2.63-.77-.34-1.34,0-1.72,1.05-.38.71-.48,1.5-.29,2.37.19.88.47,1.67.86,2.36ZM175.22,247.2c.76.35,1.43.09,2-.79.57-.87.76-2.02.57-3.42,0-1.75-.48-3.07-1.43-3.95-.96-.87-1.72-.61-2.29.79-.57.7-.76,2.02-.57,3.94.19,1.93.76,3.07,1.72,3.42ZM176.65,343.45c.38-1.4.29-2.63-.29-3.68-.96-.7-1.62-.53-2.01.53-.19.35-.29.88-.29,1.58s.19,1.23.57,1.58c.57,1.41,1.24,1.41,2.01,0ZM175.5,287.7c.95.71,1.71.53,2.29-.53.57-1.05.67-2.28.29-3.68-.19-1.05-.62-1.84-1.29-2.36-.67-.53-1.19-.44-1.57.26-.57.71-.82,1.76-.72,3.16.09,1.41.43,2.46,1,3.16ZM175.5,223.53c-.77,1.05-.96,2.81-.57,5.26.57,1.75,1.33,2.63,2.29,2.63.76.35,1.43-.08,2.01-1.32.57-1.22.67-2.54.29-3.94-.38-1.75-1-2.9-1.86-3.42-.86-.53-1.58-.26-2.15.79ZM178.36,327.15c.38-.7.38-1.58,0-2.63-.39-1.05-.86-1.58-1.43-1.58-.39,0-.77.35-1.15,1.05-.38.71-.48,1.58-.28,2.63.19,1.05.57,1.76,1.14,2.1,1.14.71,1.72.18,1.72-1.58ZM178.36,272.45c.95,0,1.48-.87,1.57-2.63.1-1.75-.24-3.16-1-4.21-.77-1.4-1.62-1.4-2.58,0-.57,1.05-.77,2.29-.57,3.68.38,2.81,1.24,3.86,2.58,3.16ZM176.93,308.21c-.39.71-.43,1.67-.15,2.9.29,1.23.72,2.02,1.29,2.36.57.35,1.09.09,1.57-.79.47-.87.62-1.84.43-2.9-.2-1.4-.68-2.28-1.44-2.63-.76-.34-1.34,0-1.71,1.05ZM181.51,252.46c-.2-1.75-.77-2.98-1.72-3.68-.96-.7-1.72-.35-2.29,1.05-.57.7-.72,2.02-.43,3.94.29,1.93.9,2.9,1.86,2.9.76.7,1.43.61,2.01-.27.57-.87.76-2.19.57-3.94ZM179.22,297.69c.76.71,1.43.53,2.01-.53.57-1.05.67-2.28.29-3.68-.2-1.05-.62-1.84-1.29-2.36-.67-.53-1.19-.44-1.58.26-.57.71-.81,1.76-.72,3.16.1,1.41.52,2.46,1.29,3.16ZM180.65,241.42c.95.35,1.67-.08,2.15-1.32.47-1.22.52-2.54.15-3.94-.39-1.75-1-2.9-1.86-3.42-.86-.53-1.57-.26-2.15.79-.77,1.41-.96,3.16-.57,5.26.57,1.75,1.33,2.63,2.29,2.63ZM182.08,337.14c.19-.7.1-1.58-.29-2.63s-.86-1.58-1.43-1.58c-.38,0-.76.35-1.14,1.05-.77,2.46-.48,4.04.86,4.73.95.71,1.62.18,2-1.58ZM182.66,275.6c-.96-1.05-1.91-1.05-2.86,0-.77,1.05-.86,2.63-.29,4.73.57,2.1,1.33,2.81,2.29,2.1.95,0,1.48-.87,1.58-2.63.09-1.75-.15-3.16-.72-4.21ZM180.08,217.75c-1.15,2.1-1.15,4.04,0,5.79.76,3.51,1.9,4.21,3.43,2.1.76-.7,1.14-1.93,1.14-3.68s-.28-3.16-.86-4.21c-.38-.7-1-1.14-1.86-1.32-.86-.17-1.48.27-1.86,1.32ZM181.51,323.46c.57.35,1.09.09,1.57-.79.47-.87.62-1.84.43-2.9-.19-1.4-.62-2.28-1.29-2.63-.68-.34-1.19,0-1.58,1.05-.38.71-.48,1.58-.29,2.63.19,1.05.57,1.93,1.15,2.63ZM184.95,262.45c0-1.75-.48-2.97-1.43-3.68-.96-.7-1.72-.35-2.29,1.05-.77.7-1,1.93-.72,3.68.29,1.76.9,2.81,1.86,3.16.76.71,1.43.62,2.01-.26.57-.87.76-2.19.57-3.95ZM182.08,301.37c-.57.71-.81,1.84-.72,3.42s.62,2.55,1.58,2.89c.76.71,1.43.53,2-.53.57-1.05.67-2.28.29-3.68-.38-1.05-.86-1.84-1.43-2.36s-1.14-.44-1.72.26ZM184.09,251.41c.95.35,1.67-.08,2.15-1.32.47-1.22.52-2.54.14-3.94-.19-1.75-.76-2.9-1.72-3.42-.95-.53-1.71-.26-2.29.79-.77,1.4-.96,2.98-.57,4.73.57,2.1,1.34,3.16,2.29,3.16ZM183.52,285.59c-.96,1.05-1.14,2.63-.57,4.73.57,2.1,1.33,2.81,2.29,2.1.95,0,1.53-.87,1.72-2.63.19-1.75-.1-3.16-.86-4.21-.96-1.4-1.82-1.4-2.58,0ZM184.38,235.63c.95,1.05,1.9.88,2.86-.53.95-1.4,1.24-2.98.86-4.73-.38-1.75-1.1-2.98-2.15-3.68-1.05-.7-1.86-.35-2.43,1.05-.57,1.05-.77,2.46-.57,4.21.19,1.75.67,2.98,1.43,3.68ZM184.95,333.46c.57.35,1.1.09,1.58-.79.47-.87.61-1.84.43-2.9,0-1.4-.38-2.36-1.14-2.89-.77-.53-1.34-.08-1.72,1.31-.38.71-.48,1.58-.29,2.63.19,1.05.57,1.93,1.14,2.63ZM185.81,276.65c.76.71,1.43.53,2-.53.57-1.05.76-2.28.57-3.68,0-1.75-.48-2.97-1.43-3.68-.96-.7-1.72-.53-2.29.53-.76,1.05-1,2.46-.72,4.21.29,1.76.91,2.81,1.86,3.16ZM184.95,211.96c-.96,1.41-1.05,3.51-.29,6.31.38,1.05,1,1.75,1.86,2.1.86.35,1.57.18,2.15-.53.57-.7.9-1.75,1-3.16.09-1.4-.05-2.63-.43-3.68-.38-1.75-1.05-2.71-2-2.9-.96-.17-1.72.45-2.29,1.84ZM186.38,317.68c.76.71,1.43.53,2.01-.53.57-1.05.67-2.28.29-3.68-.77-3.5-1.72-4.21-2.86-2.1-.77.71-1.05,1.84-.86,3.42s.67,2.55,1.43,2.89ZM187.81,261.4c.76.35,1.39-.08,1.86-1.31.47-1.22.52-2.54.14-3.94-.19-1.75-.72-2.9-1.57-3.42-.86-.53-1.58-.26-2.15.79-.77,1.05-.96,2.63-.57,4.73.38,2.1,1.14,3.15,2.29,3.15ZM186.95,295.59c-.57.71-.82,1.67-.72,2.9.1,1.23.43,2.19,1,2.89.76,1.41,1.62,1.58,2.58.53.38-.7.52-1.84.43-3.42s-.43-2.71-1-3.42c-.76-1.05-1.53-.87-2.29.53ZM191.53,243.52c.38-.7.43-1.66.14-2.9-.28-1.22-.62-2.19-1-2.89-1.34-2.45-2.58-2.45-3.72,0-.38,1.05-.53,2.45-.43,4.21.09,1.75.52,2.98,1.29,3.68,1.72,1.05,2.96.35,3.72-2.1ZM189.24,286.65c.76.71,1.43.53,2.01-.53.57-1.05.76-2.28.57-3.68,0-1.75-.48-2.97-1.43-3.68-.96-.7-1.72-.53-2.29.53-.57,1.05-.77,2.46-.57,4.21.19,1.76.76,2.81,1.71,3.16ZM192.68,222.48c-.38-1.4-1.05-2.19-2.01-2.37-.95-.17-1.71.27-2.29,1.32-1.14,2.1-1.14,4.21,0,6.31.38,1.41.95,2.28,1.72,2.63.76.35,1.43.18,2.01-.53.57-.7.9-1.75,1-3.16.1-1.4-.05-2.8-.43-4.21ZM189.53,327.67c.76.71,1.48.53,2.15-.53.67-1.05.81-2.28.43-3.68-.2-1.4-.62-2.28-1.29-2.63-.67-.34-1.19-.17-1.58.53-.57.71-.81,1.76-.72,3.16.1,1.41.43,2.46,1,3.16ZM191.25,271.39c.76.35,1.38-.17,1.86-1.58.47-1.4.52-2.8.15-4.21-.19-1.75-.77-2.8-1.72-3.16-.96-.34-1.72,0-2.29,1.05-.57,1.05-.67,2.63-.28,4.73.38,2.1,1.14,3.16,2.29,3.16ZM192.39,312.42c.76-.34,1.24-1.4,1.43-3.16.19-1.75-.1-2.97-.86-3.68-.57-1.75-1.43-1.92-2.58-.53-.96,1.76-1.05,3.51-.29,5.26.19,1.41.95,2.1,2.29,2.1ZM194.4,254.57c.57-.7.81-1.84.72-3.42s-.43-2.71-1-3.42c-1.14-2.81-2.29-2.81-3.44,0-.57,1.05-.76,2.36-.57,3.94.19,1.58.67,2.72,1.43,3.42,1.14,2.1,2.1,1.93,2.86-.53ZM196.11,232.48c-.38-1.4-1.05-2.19-2.01-2.37-.96-.17-1.72.27-2.29,1.32-1.15,2.1-1.15,4.21,0,6.31.38,1.41.95,2.28,1.72,2.63.76.35,1.43.18,2-.53.76-.7,1.19-1.75,1.29-3.16.1-1.4-.15-2.8-.72-4.21ZM192.96,296.64c.76.71,1.38.53,1.86-.53.47-1.05.72-2.28.72-3.68-.19-1.75-.77-2.97-1.72-3.68-.96-.7-1.71-.53-2.29.53s-.72,2.46-.43,4.21c.29,1.76.9,2.81,1.86,3.16ZM192.96,273.5c-.57,1.05-.77,2.46-.57,4.21.19,1.76.67,2.81,1.43,3.16.95.71,1.81.53,2.58-.53.76-1.05.95-2.45.57-4.21-.38-1.75-1.05-2.97-2-3.68-.96-.7-1.63-.34-2.01,1.05ZM196.4,266.13c.95,0,1.62-.79,2-2.36.38-1.58.29-3.24-.28-4.99-.39-1.4-1-2.28-1.86-2.63-.86-.35-1.57.18-2.15,1.58-.96,1.4-1.1,3.24-.43,5.52.67,2.29,1.57,3.24,2.72,2.89ZM196.4,306.63c.76.71,1.43.53,2-.53.57-1.05.76-2.28.57-3.68,0-1.75-.48-2.97-1.43-3.68-.96-.7-1.72-.53-2.29.53-.76,1.05-1,2.46-.72,4.21.29,1.76.91,2.81,1.86,3.16ZM200.12,244.05c-.38-2.1-1.1-3.42-2.15-3.95s-1.86-.08-2.43,1.32c-.96,1.4-1.19,3.16-.72,5.26.47,2.1,1.29,3.33,2.43,3.68.95.7,1.76.26,2.43-1.32.67-1.58.81-3.24.43-4.99ZM197.55,290.85c.95.71,1.76.45,2.43-.79.67-1.22.81-2.71.43-4.47-.38-1.75-1-2.89-1.86-3.42-.86-.53-1.58-.08-2.15,1.31-.57,1.05-.77,2.37-.57,3.95.19,1.58.76,2.72,1.72,3.42ZM195.83,197.76c.19-.34.29-.7.29-1.05.38-.7.72-1.22,1-1.58.29-.34.61-.7,1-1.05h.86c-.19,1.05-.29,2.63-.29,4.73-1.14-.7-2.1-1.05-2.86-1.05ZM197.55,267.71c-.77,1.41-.86,3.08-.29,5,.57,1.93,1.34,3.07,2.29,3.42.95,0,1.71-.6,2.29-1.84.57-1.22.67-2.71.29-4.47-.38-1.75-1.1-2.97-2.15-3.68-1.05-.7-1.86-.17-2.43,1.58ZM203.56,253.52c-.38-1.75-1.1-2.9-2.15-3.42-1.05-.53-1.86-.08-2.43,1.32-.77,1.4-.91,3.16-.43,5.26.47,2.1,1.19,3.33,2.15,3.68.95.7,1.76.18,2.43-1.58.67-1.75.81-3.5.43-5.26ZM200.12,203.02c.76.71,1.53,1.05,2.29,1.05-.19,1.05-.29,2.63-.29,4.73-1.14-.7-2.1-1.05-2.86-1.05.38-.7.57-1.49.57-2.37s.1-1.66.29-2.36ZM205.56,279.81c-.39-1.75-1.1-2.97-2.15-3.68-1.05-.7-1.86-.17-2.43,1.58-.77,1.41-.86,3.08-.29,5,.57,1.93,1.33,3.07,2.29,3.42.95,0,1.72-.6,2.29-1.84.57-1.22.67-2.71.29-4.47ZM206.99,263.5c-.39-1.75-1.1-2.89-2.15-3.42-1.05-.53-1.86-.08-2.43,1.31-.77,1.41-.91,3.16-.43,5.26.48,2.1,1.19,3.34,2.15,3.68.95.71,1.76.18,2.43-1.58.67-1.75.81-3.5.43-5.26ZM203.56,213.01c.76.71,1.53,1.05,2.29,1.05-.19,1.05-.28,2.63-.28,4.73-1.15-.7-2.01-1.05-2.58-1.05.38-2.1.57-3.68.57-4.73ZM209,228.79c-1.14-.7-2-1.05-2.58-1.05.38-2.1.57-3.85.57-5.26.19.35.67.88,1.43,1.58.38,2.1.57,3.68.57,4.73Z"/>
      <path class="cls-1" d="M245.23,114.59c0-15.34,2.96-29.82,8.89-43.43,5.93-13.6,14.02-25.37,24.27-35.31,10.25-9.94,22.29-17.79,36.13-23.55,13.84-5.75,28.49-8.63,43.94-8.63,17.26,0,33.43,3.66,48.53,10.99,7.2,3.14,14.02,7.51,20.49,13.08,10.43,7.32,18.42,17.53,23.99,30.6,5.58,13.08,9.8,26.25,12.67,39.5,3.24,15.35,5.22,31.39,5.93,48.13l.54-1.04v115.1l-85.2,47.08V114.59c0-8.02-2.6-14.55-7.82-19.62-5.21-5.05-11.6-7.58-19.15-7.58s-14.56,2.54-19.95,7.58c-5.39,5.07-8.09,11.6-8.09,19.62v83.19c-.72-.69-1.62-.86-2.7-.52-.72.35-.98.78-.81,1.3.19.53.63.97,1.35,1.31.73.7,1.44.53,2.16-.53v8.89c-.72-.69-1.25-1.04-1.62-1.04-1.43,0-2.16.7-2.16,2.1,0,.7.73,1.39,2.16,2.09.36,0,.9-.34,1.62-1.04v7.85c-.72-.69-1.43-.69-2.16,0-1.79,0-2.33.88-1.62,2.61,0,1.4,1.08,1.75,3.24,1.05h.54v6.8c-.72-.69-1.43-.69-2.16,0-2.16,0-2.87.88-2.16,2.61.73,1.75,1.98,2.28,3.77,1.57h.54v6.28c-1.08-.69-2.33-.69-3.77,0-1.43,1.4-1.43,2.8,0,4.19.73,1.39,1.98,1.57,3.77.52v5.76c-1.08-.7-1.97-.7-2.7,0-1.79.35-2.6,1.3-2.42,2.87.19,1.57,1.17,2.54,2.96,2.88,1.08,0,1.8-.18,2.16-.53v5.23c-1.79-1.05-3.24-.69-4.31,1.04-1.08.7-1.35,1.75-.81,3.14.54,1.4,1.71,2.1,3.5,2.1.73,0,1.26-.18,1.62-.53v4.71c-1.43-1.04-2.87-.87-4.31.53-1.08.7-1.52,1.74-1.35,3.14.19,1.39,1.17,2.44,2.96,3.14,1.08,0,1.98-.18,2.7-.53v3.66c-2.16,0-3.59.18-4.31.52-1.08.7-1.62,1.75-1.62,3.14s.54,2.45,1.62,3.14c.73.7,2.16,1.04,4.31,1.04v2.62c-2.51-.69-4.31-.18-5.39,1.57-1.08,1.04-1.35,2.27-.81,3.66.54,1.4,1.53,2.45,2.96,3.14h3.24v2.1h-1.62c-1.43-.34-2.7,0-3.77,1.04-1.08,1.05-1.43,2.1-1.08,3.14-.35,1.75.19,3.06,1.62,3.92,1.44.88,2.88,1.14,4.31.78h.54v1.57h-1.62c-1.43-.34-2.7,0-3.77,1.04-1.08,1.05-1.62,2.28-1.62,3.66s.54,2.61,1.62,3.66c1.08,1.04,2.34,1.39,3.77,1.04h1.62v1.04c-1.79-.69-3.5-.52-5.12.53-1.62,1.04-2.43,2.45-2.43,4.18s.54,2.97,1.62,3.66c1.08.7,2.16,1.39,3.24,2.1-2.16.7-3.77,1.92-4.85,3.66-1.08-2.43-2.87-3.83-5.39-4.18,2.52-.69,3.96-1.57,4.31-2.61,1.44-3.48.73-5.76-2.16-6.8-1.79-1.04-3.77-1.04-5.93,0s-3.05,2.45-2.7,4.18c-.35,2.45,1.26,4.37,4.85,5.76-2.16,0-3.95,1.23-5.39,3.66-.72-.69-1.43-1.48-2.16-2.35-.72-.86-1.62-1.48-2.7-1.83,2.16-.69,3.6-1.57,4.31-2.61,1.44-3.48.54-5.76-2.7-6.8-1.79-1.04-3.68-1.04-5.66,0-1.97,1.04-2.96,2.45-2.96,4.18s.54,2.97,1.62,3.66c1.08.7,2.16,1.39,3.24,2.1-2.16.7-3.77,1.92-4.85,3.66-1.08-2.43-2.88-3.83-5.39-4.18,2.51-.69,3.96-1.57,4.31-2.61,1.44-3.48.72-5.76-2.16-6.8-1.8-1.04-3.77-1.04-5.93,0-2.16,1.04-3.05,2.45-2.7,4.18-.36,2.45,1.26,4.37,4.85,5.76-2.51.35-4.31,1.57-5.39,3.66-1.08-2.43-2.7-3.83-4.85-4.18,2.16-.69,3.59-1.57,4.31-2.61,1.44-3.48.54-5.76-2.7-6.8-1.8-1.04-3.68-1.04-5.66,0-1.97,1.04-2.96,2.45-2.96,4.18s.54,2.97,1.62,3.66c1.08.7,2.16,1.39,3.24,2.1-2.16.7-3.77,1.92-4.85,3.66-1.08-2.43-2.87-3.83-5.39-4.18,3.6-.69,5.22-2.44,4.85-5.23.36-1.39-.09-2.61-1.35-3.66-1.25-1.05-2.6-1.39-4.04-1.05-1.79-.34-3.32,0-4.59,1.05-1.25,1.04-1.7,2.27-1.35,3.66-.36,2.8,1.26,4.54,4.85,5.23-2.87,1.39-4.67,2.8-5.39,4.18-1.08-2.43-2.87-3.83-5.39-4.18,1.08-.34,2.16-.78,3.24-1.31,1.08-.52,1.8-1.3,2.16-2.35.36-1.74-.09-3.31-1.35-4.71-1.25-1.39-2.78-1.91-4.58-1.57-1.79-.34-3.24,0-4.31,1.05-1.08,1.04-1.62,2.27-1.62,3.66,0,2.8,1.62,4.54,4.85,5.23-2.51,1.04-4.13,2.45-4.85,4.18-1.43-2.09-3.05-3.31-4.85-3.66v-.53l3.24-1.57c1.44-1.39,1.88-2.96,1.35-4.71-.54-1.74-1.7-2.96-3.5-3.66h-1.08v-1.04c1.44-.34,2.61-1.04,3.5-2.1.9-1.04,1-2.26.27-3.66,0-1.74-1.25-2.96-3.77-3.66v-1.57c3.24-.69,4.5-2.61,3.77-5.75-.35-1.39-1.62-2.44-3.77-3.14v-2.1c1.08-.34,2.07-1.04,2.96-2.09.9-1.05,1-2.1.27-3.14,0-1.39-1.08-2.44-3.24-3.14v-2.62c2.88-.69,3.96-2.26,3.24-4.71-.35-1.39-1.43-2.43-3.24-3.13v-3.14c2.52-.7,3.42-2.1,2.7-4.19,0-1.39-.89-2.43-2.7-3.14v-3.66c1.8-.69,2.7-1.91,2.7-3.66,0-1.39-.89-2.44-2.7-3.14v-4.71c2.16-.69,2.88-1.91,2.16-3.66-.35-1.05-1.08-1.57-2.16-1.57v-5.76c.73,0,1.08-.34,1.08-1.04.36,0,.54-.69.54-2.1,0-1.04-.54-1.57-1.62-1.57v-6.28c1.44-.69,1.8-1.57,1.08-2.61,0-.34-.35-.87-1.08-1.57v-6.8c1.44-.7,1.8-1.57,1.08-2.62,0-.69-.35-1.04-1.08-1.04v-7.32c1.08-.69,1.26-1.39.54-2.1,0-.34-.18-.69-.54-1.04v-8.37c.36,0,.54-.34.54-1.04l-.54-.53v-83.19ZM246.31,343.22c1.44-1.05,2.7-2.26,3.77-3.66,1.08,1.4,2.34,2.61,3.77,3.66-1.79,1.39-3.05,2.45-3.77,3.14-1.79-1.74-3.05-2.79-3.77-3.14ZM250.08,351.07c.73,1.04,1.62,1.92,2.7,2.61l-2.7,2.61c-.72-.69-1.79-1.39-3.24-2.09l3.24-3.14ZM247.39,364.67c.73-.34,1.17-.69,1.35-1.05.19-.34.63-.69,1.35-1.04l2.16,2.1c-.35.35-.72.61-1.08.78-.35.18-.72.44-1.08.78-.72-.34-1.16-.61-1.35-.78-.18-.18-.62-.43-1.35-.78ZM251.7,375.13l-1.62,1.57-1.62-1.57,1.62-1.57,1.62,1.57ZM249,386.12l1.08-1.04,1.08,1.04-1.08,1.04-1.08-1.04ZM261.41,315.49c-.36-1.74-1.7-2.96-4.05-3.66-2.33-.69-4.04-.17-5.12,1.57-1.79,1.04-2.33,2.54-1.62,4.45.73,1.92,2.16,3.06,4.31,3.4,1.8.7,3.5.35,5.12-1.04,1.62-1.39,2.07-2.96,1.35-4.71ZM251.16,306.6c.73,3.13,2.88,4.36,6.47,3.66,3.6-.69,4.68-2.61,3.24-5.75-.36-1.39-1.25-2.35-2.7-2.88-1.43-.52-2.87-.43-4.31.27-2.51.7-3.41,2.27-2.7,4.71ZM254.4,299.27c1.8.71,3.42.44,4.85-.78,1.44-1.22,1.98-2.52,1.62-3.92,0-1.74-1.25-2.96-3.77-3.66-2.16-.69-3.77-.18-4.85,1.57-1.08,1.04-1.35,2.27-.81,3.66.54,1.4,1.54,2.45,2.97,3.14ZM253.86,287.77c1.8.7,3.5.61,5.12-.27,1.62-.86,2.07-2.17,1.35-3.92,0-1.74-.99-2.78-2.97-3.13-1.97-.34-3.5,0-4.58,1.04-1.08.7-1.53,1.74-1.35,3.14.19,1.39,1,2.45,2.43,3.14ZM257.63,269.97c-2.87-.69-4.67.18-5.39,2.62-.72,1.39-.45,2.7.81,3.92,1.26,1.23,2.62,1.49,4.05.78,2.16-.34,3.24-1.74,3.24-4.19-.72-1.74-1.62-2.79-2.7-3.14ZM254.94,266.32c1.44.35,2.7.09,3.77-.78,1.08-.87,1.44-1.84,1.08-2.88,0-1.04-.72-1.91-2.16-2.61-1.43-.69-2.7-.69-3.77,0-1.43.7-1.97,1.83-1.62,3.4.36,1.57,1.26,2.54,2.7,2.88ZM254.4,254.8c1.44.7,2.79.62,4.04-.26,1.26-.87,1.53-2,.81-3.4-.72-2.44-2.16-2.96-4.31-1.57-1.43.35-2.24,1.14-2.43,2.35-.18,1.23.46,2.18,1.89,2.87ZM258.71,240.67c-.35-1.04-1.08-1.74-2.16-2.09-1.08-.34-1.97-.18-2.7.52-1.08,1.05-1.25,2.45-.54,4.19,2.16,2.09,3.96,1.92,5.39-.53.72-.69.72-1.39,0-2.1ZM258.71,230.21c-.72-1.74-1.79-2.26-3.24-1.57-2.16,0-2.87.88-2.16,2.61.73,1.75,1.98,2.28,3.77,1.57.72,0,1.26-.26,1.62-.78.36-.52.36-1.13,0-1.83ZM258.17,219.23c0-1.39-.89-1.74-2.7-1.04-1.79,0-2.33.88-1.62,2.61,0,1.4,1.08,1.75,3.24,1.05,1.8,0,2.16-.87,1.08-2.62ZM258.17,208.76c-1.08-1.04-1.79-1.57-2.16-1.57-1.43,0-2.16.7-2.16,2.1,0,.7.73,1.39,2.16,2.09,1.8-1.04,2.52-1.91,2.16-2.61ZM254.4,198.3c-.35,1.04.19,1.57,1.62,1.57,1.08,0,1.62-.53,1.62-1.57,0-.69-.35-1.04-1.08-1.04-.72-.7-1.43-.34-2.16,1.04ZM257.63,187.84c-.72-1.39-1.43-1.74-2.16-1.05-1.43.71-1.43,1.4,0,2.1.36.35.81.35,1.35,0,.54-.34.81-.69.81-1.04ZM255.48,165.86v1.04h1.08v-1.04h-1.08ZM257.09,177.89v-1.57h-1.62v1.57h1.62ZM256.55,155.4c-.72,0-.89.18-.54.52.36,0,.54-.17.54-.52ZM261.95,339.56c1.08,1.4,2.34,2.61,3.77,3.66-.72.7-1.35,1.23-1.89,1.57-.54.35-1.16.88-1.88,1.57-1.79-1.74-3.05-2.79-3.77-3.14,1.44-1.05,2.7-2.26,3.77-3.66ZM265.18,353.68c-.72.7-1.25,1.14-1.62,1.31-.36.18-.9.61-1.62,1.3-.36-.69-1.25-1.39-2.7-2.09,1.44-1.39,2.34-2.44,2.7-3.14,1.44,1.39,2.52,2.27,3.24,2.61ZM264.64,364.67c-.72.35-1.16.61-1.35.78-.18.18-.62.44-1.35.78-.36-.34-.72-.61-1.08-.78-.36-.18-.72-.43-1.08-.78l2.16-2.1c.72.35,1.17.7,1.35,1.04.19.36.63.71,1.35,1.05ZM261.95,376.7l-1.62-1.57,1.62-1.57,1.62,1.57-1.62,1.57ZM273.27,304.51c-.36-1.39-1.35-2.35-2.97-2.88-1.62-.52-3.14-.43-4.58.27-1.44.7-2.33,1.65-2.7,2.87-.36,1.23-.18,2.35.54,3.4,1.44,2.1,3.42,2.8,5.93,2.1,3.24-.69,4.5-2.61,3.77-5.75ZM268.42,311.83c-1.79-.34-3.24,0-4.31,1.04-1.08,1.05-1.44,2.28-1.08,3.66-.36,1.4,0,2.61,1.08,3.66,1.08,1.04,2.52,1.39,4.31,1.04,1.8.35,3.24-.17,4.31-1.57,1.08-1.39,1.26-2.79.54-4.18,0-1.05-.54-2-1.62-2.88-1.08-.87-2.16-1.13-3.24-.78ZM266.8,299.27c1.8.71,3.42.44,4.85-.78,1.44-1.22,1.8-2.52,1.08-3.92,0-1.74-1.08-2.96-3.24-3.66-2.51-.69-4.31-.18-5.39,1.57-1.08,1.04-1.35,2.27-.81,3.66.54,1.4,1.71,2.45,3.51,3.14ZM269.5,269.97c-.72-.34-1.7-.26-2.97.27-1.25.52-2.06,1.3-2.42,2.35-.72,1.39-.45,2.7.81,3.92,1.26,1.23,2.79,1.49,4.59.78,2.52-.7,3.42-2.1,2.7-4.19,0-1.39-.9-2.43-2.7-3.14ZM266.26,287.77c1.44.7,2.96.61,4.58-.27,1.62-.86,2.25-2.17,1.89-3.92-.36-1.74-1.44-2.78-3.24-3.13-1.79-.34-3.24,0-4.31,1.04-1.08.7-1.53,1.74-1.35,3.14.19,1.39.99,2.45,2.43,3.14ZM272.19,262.65c0-1.04-.72-1.91-2.16-2.61-1.44-.69-2.7-.69-3.77,0-2.87,1.39-3.24,3.14-1.08,5.23,1.08,1.05,2.61,1.31,4.58.78,1.98-.52,2.79-1.65,2.43-3.4ZM271.11,240.67c-.36-1.04-1.08-1.74-2.16-2.09-1.08-.34-1.98-.18-2.7.52-1.79,1.4-1.98,2.8-.54,4.19.72.7,1.62.96,2.7.78s1.8-.61,2.16-1.31c.36,0,.54-.69.54-2.1ZM271.65,251.14c-1.44-2.44-3.41-2.79-5.93-1.05-.72.71-.99,1.66-.81,2.88.19,1.23.99,2.01,2.43,2.35,1.44.35,2.61,0,3.5-1.04.9-1.05,1.17-2.1.81-3.14ZM270.57,219.23c-.72-1.39-1.79-1.74-3.24-1.04-1.79,0-2.33.88-1.62,2.61.72,1.4,1.8,1.75,3.24,1.05.72,0,1.26-.27,1.62-.78.36-.53.36-1.13,0-1.84ZM270.57,230.21c0-1.74-1.08-2.26-3.24-1.57-1.79,0-2.33.88-1.62,2.61,0,1.75,1.08,2.28,3.24,1.57,2.16,0,2.7-.86,1.62-2.61ZM266.26,198.3c0,1.04.72,1.57,2.16,1.57,1.08,0,1.62-.53,1.62-1.57l-1.08-1.04c-1.08-.7-1.98-.34-2.7,1.04ZM270.03,208.76c0-1.04-.54-1.57-1.62-1.57-1.44,0-2.16.7-2.16,2.1,0,.7.72,1.39,2.16,2.09,1.44-.69,1.98-1.57,1.62-2.61ZM269.5,187.84c0-1.39-.72-1.74-2.16-1.05-1.08,1.05-1.08,1.75,0,2.1.72.35,1.35.35,1.88,0,.54-.34.63-.69.27-1.04ZM267.34,165.86v1.04h1.62v-1.04h-1.62ZM268.96,177.89v-1.57h-1.62v1.57h1.62ZM268.42,155.4c-.36,0-.54.18-.54.52.36,0,.54-.17.54-.52ZM277.58,343.22c-.72.7-1.25,1.23-1.62,1.57-.36.35-.9.88-1.62,1.57-1.79-1.74-3.05-2.79-3.77-3.14,1.44-1.05,2.7-2.26,3.77-3.66.72,1.04,1.8,2.27,3.24,3.66ZM274.35,356.3c-.72-.69-1.79-1.39-3.24-2.09l3.24-3.14c.72.7,1.17,1.23,1.35,1.57.19.35.63.7,1.35,1.04l-2.7,2.61ZM276.51,364.67c-.36.35-.72.61-1.08.78-.36.18-.72.44-1.08.78-.72-.34-1.16-.61-1.35-.78-.18-.18-.62-.43-1.35-.78.72-.34,1.17-.69,1.35-1.05.19-.34.63-.69,1.35-1.04l2.16,2.1ZM274.35,373.57l1.08,1.04-2.16,1.05-.54-.53,1.62-1.57ZM280.28,311.83c-1.44-.34-2.7,0-3.77,1.04-1.08,1.05-1.62,2.28-1.62,3.66-.36,1.4.09,2.61,1.35,3.66,1.26,1.04,2.61,1.39,4.05,1.04,1.8.35,3.33-.17,4.58-1.57,1.26-1.39,1.53-2.79.81-4.18-.36-1.05-.99-2-1.89-2.88-.89-.87-2.06-1.13-3.5-.78ZM285.13,304.51c-.36-1.39-1.26-2.35-2.7-2.88-1.44-.52-2.87-.43-4.31.27-2.16.7-3.14,2.09-2.97,4.18.19,2.09,1.35,3.49,3.51,4.18,1.8.7,3.5.35,5.12-1.04,1.62-1.39,2.07-2.96,1.35-4.71ZM281.36,290.9c-1.79-.34-3.41.18-4.85,1.57-1.08,1.04-1.35,2.27-.81,3.66.54,1.4,1.53,2.45,2.97,3.14,1.8.71,3.42.44,4.85-.78,1.44-1.22,1.98-2.52,1.62-3.92-.36-1.74-1.62-2.96-3.77-3.66ZM278.12,287.77c1.8.7,3.5.61,5.12-.27,1.62-.86,2.07-2.17,1.35-3.92,0-1.74-.99-2.78-2.97-3.13-1.97-.34-3.5,0-4.58,1.04-1.08.7-1.53,1.74-1.35,3.14.19,1.39.99,2.45,2.43,3.14ZM281.9,269.97c-2.87-.69-4.67.18-5.39,2.62-.72,1.39-.45,2.7.81,3.92,1.26,1.23,2.61,1.49,4.05.78,2.16-.34,3.24-1.74,3.24-4.19-.72-1.74-1.62-2.79-2.7-3.14ZM284.05,262.65c0-1.04-.62-1.91-1.89-2.61-1.25-.69-2.42-.69-3.5,0-1.08.7-1.79,1.57-2.16,2.61-.36,1.04,0,1.92,1.08,2.61,1.08,1.05,2.52,1.31,4.31.78,1.8-.52,2.51-1.65,2.16-3.4ZM283.52,251.14c-.36-1.05-1.16-1.65-2.43-1.84-1.25-.17-2.24.09-2.96.78-1.08.71-1.44,1.66-1.08,2.88.36,1.23,1.26,2.01,2.7,2.35,1.08.35,2.16,0,3.24-1.04,1.08-1.05,1.26-2.1.54-3.14ZM283.52,240.67c-1.44-2.43-3.24-2.96-5.39-1.57-1.08,1.05-1.25,2.45-.54,4.19,2.16,2.09,3.96,1.92,5.39-.53.36-.34.54-1.04.54-2.1ZM282.98,230.21c-.72-1.74-1.8-2.26-3.24-1.57-2.16,0-2.87.88-2.16,2.61.72,1.75,1.98,2.28,3.77,1.57.72,0,1.26-.26,1.62-.78.36-.52.36-1.13,0-1.83ZM282.44,219.23c0-1.39-.9-1.74-2.7-1.04-1.79,0-2.33.88-1.62,2.61,0,1.4,1.08,1.75,3.24,1.05,1.8,0,2.16-.87,1.08-2.62ZM282.44,208.76c-1.08-1.04-1.79-1.57-2.16-1.57-1.44,0-2.16.7-2.16,2.1,0,.7.72,1.39,2.16,2.09,1.8-1.04,2.51-1.91,2.16-2.61ZM281.9,198.3c0-1.04-.54-1.57-1.62-1.57-1.44.7-1.98,1.39-1.62,2.1,0,.7.54,1.04,1.62,1.04,1.8,0,2.34-.53,1.62-1.57ZM281.9,187.84c-.72-1.39-1.44-1.74-2.16-1.05-1.44.71-1.44,1.4,0,2.1.36.35.81.35,1.35,0,.54-.34.81-.69.81-1.04ZM279.74,165.86v1.04h1.08v-1.04h-1.08ZM281.36,177.89v-1.57h-1.62v1.57h1.62ZM280.82,155.4c-.72,0-.9.18-.54.52.36,0,.54-.17.54-.52ZM282.44,343.22c1.44-1.05,2.7-2.26,3.77-3.66,1.08,1.4,2.34,2.61,3.77,3.66-1.8,1.39-3.05,2.45-3.77,3.14-1.44-1.39-2.7-2.44-3.77-3.14ZM289.45,353.68c-.72.7-1.26,1.14-1.62,1.31s-.9.61-1.62,1.3c-.36-.69-1.26-1.39-2.7-2.09,1.44-1.39,2.34-2.44,2.7-3.14,1.44,1.39,2.51,2.27,3.24,2.61ZM288.37,364.67c-.72.7-1.44,1.23-2.16,1.57-.36-.34-.72-.61-1.08-.78s-.72-.43-1.08-.78c.72-.34,1.17-.69,1.35-1.05.19-.34.45-.69.81-1.04.72.35,1.17.7,1.35,1.04.19.36.45.71.81,1.05ZM292.68,311.83c-1.8-.34-3.24,0-4.31,1.04-1.08,1.05-1.44,2.28-1.08,3.66-.36,1.4,0,2.61,1.08,3.66,1.08,1.04,2.51,1.39,4.31,1.04,1.8.35,3.24-.17,4.31-1.57,1.08-1.39,1.44-2.79,1.08-4.18-.36-1.05-1.08-2-2.16-2.88-1.08-.87-2.16-1.13-3.24-.78ZM293.22,290.9c-1.44-.34-3.05.18-4.85,1.57-1.08,1.04-1.35,2.27-.81,3.66.54,1.4,1.71,2.45,3.51,3.14,1.8.71,3.42.44,4.85-.78,1.44-1.22,1.8-2.52,1.08-3.92,0-1.74-1.26-2.96-3.77-3.66ZM297.54,305.03c-.72-2.44-2.34-3.66-4.85-3.66-1.8-.34-3.14,0-4.05,1.04-.89,1.05-1.35,2.1-1.35,3.14,0,1.75.63,3.06,1.88,3.92,1.26.88,2.79,1.14,4.59.78,3.24-.69,4.5-2.43,3.77-5.23ZM293.76,269.97c-2.16-.69-3.96.18-5.39,2.62-.72,1.39-.45,2.7.81,3.92,1.26,1.23,2.79,1.49,4.59.78,2.51-.7,3.42-2.1,2.7-4.19,0-1.39-.9-2.43-2.7-3.14ZM290.53,287.77c1.44.7,2.96.61,4.58-.27,1.62-.86,2.25-2.17,1.89-3.92-.36-1.74-1.44-2.78-3.24-3.13-1.8-.34-3.24,0-4.31,1.04-1.08.7-1.53,1.74-1.35,3.14.19,1.39.99,2.45,2.43,3.14ZM296.46,262.65c0-1.04-.72-1.91-2.16-2.61-1.44-.69-2.7-.69-3.77,0-2.88,1.39-3.24,3.14-1.08,5.23,1.08,1.05,2.61,1.31,4.58.78,1.98-.52,2.79-1.65,2.43-3.4ZM295.92,251.14c-1.44-2.1-3.05-2.62-4.85-1.57-1.44.35-2.16,1.3-2.16,2.87s.9,2.54,2.7,2.88c1.44.35,2.61,0,3.5-1.04.9-1.05,1.17-2.1.81-3.14ZM295.38,240.67c-.36-1.04-1.08-1.74-2.16-2.09-1.08-.34-1.98-.18-2.7.52-1.44,1.75-1.62,3.14-.54,4.19.72.7,1.62.96,2.7.78s1.98-.61,2.7-1.31v-2.1ZM294.84,219.23c-.72-1.39-1.8-1.74-3.24-1.04-1.8,0-2.34.88-1.62,2.61.72,1.4,1.8,1.75,3.24,1.05.72,0,1.26-.27,1.62-.78.36-.53.36-1.13,0-1.84ZM294.84,230.21c0-1.74-1.08-2.26-3.24-1.57-1.8,0-2.34.88-1.62,2.61.72,1.75,1.8,2.28,3.24,1.57,2.16,0,2.7-.86,1.62-2.61ZM292.68,196.73c-1.44,0-2.16.7-2.16,2.1.36.7,1.08,1.04,2.16,1.04s1.62-.53,1.62-1.57l-1.62-1.57ZM294.3,208.76c0-1.04-.54-1.57-1.62-1.57-1.44,0-2.16.7-2.16,2.1,0,.7.72,1.39,2.16,2.09,1.44-.69,1.98-1.57,1.62-2.61ZM293.76,187.84c0-1.39-.72-1.74-2.16-1.05-1.08,1.05-1.08,1.75,0,2.1.72.35,1.35.35,1.88,0,.54-.34.63-.69.27-1.04ZM293.22,177.89v-1.57h-1.62v1.57h1.62ZM292.68,155.4c-.36,0-.54.18-.54.52.36,0,.54-.17.54-.52ZM292.14,165.86v1.04h1.08v-1.04h-1.08ZM294.84,343.22c1.44-1.05,2.7-2.26,3.77-3.66.72,1.04,1.8,2.27,3.24,3.66-.72.7-1.26,1.23-1.62,1.57-.36.35-.9.88-1.62,1.57-1.44-1.39-2.7-2.44-3.77-3.14ZM298.61,356.3c-.72-.69-1.8-1.39-3.24-2.09l3.24-3.14c.72.7,1.17,1.23,1.35,1.57.19.35.63.7,1.35,1.04l-2.7,2.61ZM299.15,363.1l-2.7,1.57c.36-.69.72-1.13,1.08-1.31.36-.17.72-.43,1.08-.78l.54.53ZM304.54,311.83c-1.43-.34-2.69,0-3.77,1.04-1.08,1.05-1.62,2.28-1.62,3.66-.36,1.4.09,2.61,1.35,3.66,1.26,1.04,2.61,1.39,4.04,1.04,1.8.35,3.33-.17,4.59-1.57,1.26-1.39,1.53-2.79.81-4.18-.35-1.05-.98-2-1.88-2.88-.89-.87-2.07-1.13-3.51-.78ZM309.39,305.03c0-2.44-1.62-3.66-4.85-3.66-1.43-.34-2.69,0-3.77,1.04-1.08,1.05-1.44,2.1-1.08,3.14-.36,1.75.09,3.06,1.35,3.92,1.26.88,2.79,1.14,4.58.78,1.44-.34,2.62-1.04,3.51-2.1.9-1.04.99-2.09.27-3.13ZM309.39,294.56c-.35-1.74-1.62-2.96-3.77-3.66-2.15-.69-3.77-.18-4.85,1.57-1.08,1.04-1.35,2.27-.81,3.66.54,1.4,1.53,2.45,2.97,3.14,1.8.71,3.42.44,4.85-.78,1.44-1.22,1.98-2.52,1.62-3.92ZM302.93,287.77c1.44.7,2.96.61,4.58-.27,1.62-.86,2.07-2.17,1.35-3.92,0-1.74-.98-2.78-2.96-3.13-1.97-.34-3.5,0-4.58,1.04-1.08,1.04-1.44,2.18-1.08,3.4.36,1.23,1.26,2.19,2.7,2.88ZM308.85,273.11c-.72-2.79-2.51-3.83-5.39-3.14-1.8.35-2.88,1.4-3.24,3.14-.36,1.75.36,2.97,2.16,3.66,1.44,1.04,2.96,1.14,4.58.26,1.62-.86,2.25-2.17,1.88-3.92ZM308.31,262.65c0-1.04-.72-1.91-2.16-2.61-1.43-.69-2.69-.69-3.77,0-2.51,1.39-2.7,3.14-.54,5.23,1.08,1.05,2.51,1.31,4.31.78,1.8-.52,2.52-1.65,2.16-3.4ZM307.78,251.14c-.72-2.44-2.16-2.96-4.31-1.57-1.8.35-2.61,1.3-2.43,2.87.19,1.57,1.17,2.54,2.97,2.88,1.07.35,2.15,0,3.23-1.04,1.08-1.05,1.26-2.1.54-3.14ZM307.78,240.67c-.35-1.04-1.16-1.74-2.42-2.09-1.25-.34-2.24-.18-2.96.52-1.08,1.05-1.26,2.45-.54,4.19,2.16,2.09,3.96,1.92,5.39-.53.36-.34.54-1.04.54-2.1ZM307.24,230.21c-.72-1.74-1.79-2.26-3.23-1.57-2.16,0-2.88.88-2.16,2.61.72,1.75,1.98,2.28,3.77,1.57.73,0,1.26-.26,1.62-.78.36-.52.36-1.13,0-1.83ZM306.7,219.23c0-1.39-.89-1.74-2.69-1.04-1.8,0-2.34.88-1.62,2.61,0,1.4,1.08,1.75,3.23,1.05,1.8,0,2.16-.87,1.08-2.62ZM306.7,208.76c-1.08-1.04-1.79-1.57-2.16-1.57-1.43,0-2.15.7-2.15,2.1,0,.7.72,1.39,2.15,2.09,1.8-1.04,2.52-1.91,2.16-2.61ZM306.16,198.3c0-.34-.54-.87-1.62-1.57-.72,0-1.25.26-1.61.78s-.36.97,0,1.31c0,.7.54,1.04,1.61,1.04,1.8,0,2.34-.53,1.62-1.57ZM306.16,187.84c-.72-1.39-1.43-1.74-2.15-1.05-1.44.71-1.44,1.4,0,2.1.36.35.81.35,1.35,0,.54-.34.81-.69.81-1.04ZM304.01,165.86v1.04h1.07v-1.04h-1.07ZM305.62,177.89v-1.57h-1.61v1.57h1.61ZM305.08,155.4c-.72,0-.89.18-.54.52.36,0,.54-.17.54-.52ZM314.25,343.22c-.72.7-1.35,1.23-1.88,1.57-.54.35-1.16.88-1.89,1.57-1.79-1.74-3.05-2.79-3.77-3.14,1.44-1.05,2.7-2.26,3.77-3.66,1.08,1.4,2.34,2.61,3.77,3.66ZM313.71,353.68c-.72.7-1.25,1.14-1.62,1.31-.35.18-.89.61-1.62,1.3-.35-.69-1.25-1.39-2.7-2.09,1.44-1.39,2.34-2.44,2.7-3.14,1.44,1.39,2.52,2.27,3.24,2.61ZM316.94,311.83c-1.79-.34-3.24,0-4.31,1.04-1.08,1.05-1.43,2.28-1.08,3.66-.35,1.4,0,2.61,1.08,3.66,1.08,1.04,2.52,1.39,4.31,1.04,1.8.35,3.24-.17,4.31-1.57,1.08-1.39,1.44-2.79,1.08-4.18-.35-1.05-1.08-2-2.16-2.88-1.08-.87-2.16-1.13-3.24-.78ZM316.94,301.37c-1.79-.34-3.14,0-4.04,1.04-.89,1.05-1.35,2.1-1.35,3.14,0,1.75.63,3.06,1.89,3.92,1.26.88,2.79,1.14,4.58.78,3.24-.69,4.5-2.43,3.77-5.23-.72-2.44-2.33-3.66-4.85-3.66ZM321.26,294.56c0-1.74-1.16-2.96-3.5-3.66-2.33-.69-4.05-.18-5.13,1.57-.72,1.04-.89,2.27-.54,3.66.36,1.4,1.44,2.45,3.24,3.14,1.8.71,3.42.44,4.85-.78,1.44-1.22,1.8-2.52,1.08-3.92ZM321.26,284.1c0-1.74-.81-2.87-2.42-3.4-1.62-.53-3.14-.43-4.59.26-1.43.7-2.16,1.75-2.16,3.14s.73,2.45,2.16,3.14c1.44,1.4,3.06,1.66,4.85.78,1.8-.87,2.52-2.17,2.16-3.92ZM320.72,262.65c0-1.04-.72-1.91-2.16-2.61-1.43-.69-2.7-.69-3.77,0-2.87,1.39-3.24,3.14-1.08,5.23,1.08,1.05,2.62,1.31,4.59.78,1.98-.52,2.79-1.65,2.42-3.4ZM320.72,273.11c0-2.79-1.79-3.83-5.39-3.14-1.79.35-2.78,1.4-2.96,3.14-.18,1.75.45,2.97,1.88,3.66,1.44,1.04,2.97,1.14,4.59.26,1.62-.86,2.25-2.17,1.88-3.92ZM320.18,251.14c-1.43-2.1-3.05-2.62-4.85-1.57-1.43.35-2.16,1.3-2.16,2.87s.9,2.54,2.7,2.88c1.44.35,2.62,0,3.51-1.04.9-1.05,1.17-2.1.81-3.14ZM319.64,240.67c-.35-1.04-1.08-1.74-2.16-2.09-1.08-.34-1.97-.18-2.7.52-1.43,1.75-1.62,3.14-.54,4.19.73.7,1.62.96,2.7.78s1.98-.61,2.7-1.31v-2.1ZM319.1,219.23c-.72-1.04-1.79-1.39-3.24-1.04-1.79,0-2.33.88-1.62,2.61.73,1.4,1.8,1.75,3.24,1.05,2.16,0,2.7-.87,1.62-2.62ZM319.64,230.21c-.72-1.74-1.97-2.26-3.77-1.57-1.79,0-2.33.88-1.62,2.61.73,1.75,1.8,2.28,3.24,1.57,2.52,0,3.24-.86,2.16-2.61ZM316.94,196.73c-1.43,0-2.16.7-2.16,2.1.36.7,1.08,1.04,2.16,1.04s1.62-.53,1.62-1.57l-1.62-1.57ZM318.56,208.76c0-1.04-.54-1.57-1.62-1.57-1.43,0-2.16.7-2.16,2.1,0,.7.73,1.39,2.16,2.09,1.44-.69,1.98-1.57,1.62-2.61ZM318.02,187.31c-.72-.69-1.43-.87-2.16-.53-.72.36-.72.88,0,1.57.36.71,1,.88,1.89.53.9-.34.99-.87.27-1.57ZM317.48,177.89v-1.57h-1.62v1.57h1.62ZM316.94,155.4c-.35,0-.54.18-.54.52.36,0,.54-.17.54-.52ZM316.4,165.86v1.04h1.08v-1.04h-1.08ZM319.1,343.22c1.44-1.05,2.7-2.26,3.77-3.66.73,1.04,1.8,2.27,3.24,3.66-.72.7-1.25,1.23-1.62,1.57-.35.35-.89.88-1.62,1.57-1.43-1.39-2.7-2.44-3.77-3.14ZM329.88,187.31c-.35-.69-.98-.87-1.88-.53-.89.36-.99.88-.27,1.57.73.71,1.44.88,2.16.53.73-.34.73-.87,0-1.57ZM329.88,176.33c-1.08,0-1.79.18-2.16.53,0,.35.1.52.27.52.19,0,.27.18.27.53h1.62v-1.57ZM328.27,165.86v1.04h1.08v-1.04h-1.08ZM329.34,155.4c-.72,0-.89.18-.54.52.36,0,.54-.17.54-.52ZM330.42,332.76l-.54-.53h.54v.53ZM447.98,29.31c-.35-.34-.72-.53-1.08-.53-.72-.69-1.25-1.31-1.62-1.83-.35-.53-.72-1.13-1.08-1.84v-1.57c1.08.36,2.7.53,4.85.53-.72,2.1-1.08,3.84-1.08,5.23ZM614.59,118.25v267.87l-85.74-42.38v-159.57c0,.35.1.53.27.53.19,0,.27.18.27.52.36-.34.73-.52,1.08-.52,0-.34-.18-.69-.54-1.05-.35,0-.54.09-.54.27s-.18.26-.54.26v-23.55c.73-.34.73-.86,0-1.57v-37.15c1.44.71,2.52.53,3.24-.52,1.08-1.04,1.08-2.1,0-3.14-1.08-.34-2.16-.34-3.24,0v-4.18c0-6.97-2.16-12.82-6.47-17.53-4.31-4.7-9.7-7.76-16.17-9.15,1.8,0,2.88-.53,3.24-1.57,1.44-2.79.72-4.53-2.16-5.23-1.8-.34-3.24.18-4.31,1.57-1.08,1.4-1.08,2.8,0,4.19.36.35.63.52.81.52.19,0,.45.18.81.53-.72-.34-1.98-.53-3.77-.53-1.44,0-2.51.18-3.24.53h-.54c-.72-.34-1.8-.18-3.24.53-6.47,1.39-11.68,5.23-15.64,11.51-.72-2.79-1.44-5.57-2.16-8.37-.72-2.79-1.44-5.58-2.16-8.37,2.52,0,3.96-1.04,4.31-3.14.72-1.39.54-2.61-.54-3.66-1.08-1.04-2.51-1.39-4.31-1.04-.36,0-.62.09-.81.26-.18.18-.44.27-.81.27-.36-.34-.54-.69-.54-1.05s-.18-.69-.54-1.04c1.44-1.39,1.98-2.61,1.62-3.66.72-2.78-.72-4.18-4.31-4.18l-1.62-3.14c1.44-1.39,1.44-2.79,0-4.18-.35-.69-1.25-1.39-2.7-2.1-.72-.69-1.43-2.09-2.16-4.18,0-1.04-.35-1.91-1.08-2.61-.35-1.05-.89-1.57-1.62-1.57-1.43-2.79-2.51-4.71-3.24-5.76,0-1.04-.18-1.74-.54-2.09l-1.62-1.57c-.72-.69-1.25-1.57-1.62-2.61-.35-1.05-.89-1.91-1.62-2.62v-1.04c2.16,1.39,4.31,1.57,6.47.53-1.43,2.09-2.16,3.66-2.16,4.71.73,3.49,2.7,5.06,5.93,4.7,2.16-.34,3.77-1.48,4.85-3.4,1.08-1.91.9-3.57-.54-4.97-.72-1.39-1.7-2.17-2.97-2.35-1.25-.18-2.42-.08-3.5.26,1.8-1.74,2.34-3.66,1.62-5.75,2.88,1.4,5.22,1.57,7.01.53-.72.7-1.35,1.49-1.89,2.35-.54.87-.62,1.65-.27,2.35.36,1.39.99,2.61,1.88,3.66.9,1.05,2.25,1.23,4.05.53,1.8,0,3.33-.96,4.58-2.88,1.26-1.91,1.17-3.57-.27-4.97-.72-1.39-1.7-2.17-2.97-2.35-1.25-.17-2.42-.08-3.5.26,1.8-1.74,2.34-3.66,1.62-5.75,2.88.7,5.22.88,7.01.53-.72.7-1.35,1.74-1.89,3.14-.54,1.39-.44,2.61.27,3.66,2.16,3.14,4.85,3.49,8.09,1.05,1.44-.69,2.34-1.74,2.7-3.14.36-1.39,0-2.79-1.08-4.19-.72-1.04-1.7-1.65-2.97-1.83-1.25-.17-2.42-.08-3.5.26,1.44-2.78,1.98-4.7,1.62-5.75,2.88.71,5.22.71,7.01,0-2.16,2.8-2.87,4.89-2.16,6.28.72,1.75,1.88,2.8,3.5,3.14,1.62.35,3.15,0,4.59-1.04,1.8-.69,2.88-1.84,3.24-3.41s0-2.87-1.08-3.92c-1.08-2.1-3.42-2.79-7.01-2.1,1.8-1.74,2.51-3.66,2.16-5.75,2.51,1.04,4.85,1.23,7.01.52-1.44,1.4-2.16,2.62-2.16,3.66-.72,1.75-.27,3.32,1.35,4.71,1.62,1.39,3.33,1.74,5.13,1.04,1.8-.69,3.15-1.91,4.04-3.66.9-1.74.81-3.31-.27-4.71-.72-1.39-1.7-2.18-2.97-2.35-1.25-.18-2.61-.08-4.04.26,1.08-.34,1.62-1.22,1.62-2.61,2.51,0,4.31.18,5.39.52v.53c-.72,1.75-.27,3.23,1.35,4.45,1.62,1.23,3.33,1.49,5.13.78,2.51-.7,4.13-2.44,4.85-5.23,2.16.7,3.96,1.04,5.39,1.04-1.08,2.1-.72,4.02,1.08,5.76.73.7,2.16,1.04,4.31,1.04,2.52-.69,4.14-2.1,4.85-4.18,1.08.35,2.08.61,2.97.78.9.18,1.88.44,2.96.78-.72,1.74-.18,2.96,1.62,3.66,1.8,2.1,4.14,2.1,7.01,0,.73,0,1.8.35,3.24,1.05-.72,0-1.08.18-1.08.52-1.79,0-3.14.97-4.04,2.88-.89,1.92-.62,3.4.81,4.44,1.08,1.05,2.43,1.4,4.05,1.05,1.62-.34,2.79-1.22,3.5-2.62,1.08-1.74.9-3.31-.54-4.71,1.44.71,2.88,1.49,4.31,2.35,1.44.88,2.88,1.66,4.31,2.35-.35,1.75-.18,2.97.54,3.66,1.44,1.75,3.24,1.92,5.39.53.73.35,1.26.7,1.62,1.04.36.35.9.7,1.62,1.04-.72,0-1.43.36-2.16,1.05-1.79,1.39-1.97,3.14-.54,5.23,2.16,2.1,4.31,1.92,6.47-.52.36-.34.54-.61.54-.78s.19-.43.54-.78c9.35,8.02,17.17,17.26,23.46,27.73,6.29,10.46,10.7,21.8,13.21,34.01-.35.35-.35,1.04,0,2.09h.54c1.08,6.28,1.62,12.74,1.62,19.36v4.18ZM453.37,21.47c.73-1.39,1.08-2.79,1.08-4.19,1.08.36,2.7.53,4.85.53-.72,2.1-1.08,3.84-1.08,5.23-.72-.69-1.53-1.05-2.43-1.05s-1.7-.17-2.42-.52ZM462.54,49.2c1.44,1.74,3.6,1.92,6.47.52,1.08-.69,1.8-1.83,2.16-3.4.36-1.57.18-2.88-.54-3.92-.72-1.04-1.79-1.65-3.24-1.83-1.43-.18-2.7.09-3.77.78-1.79.7-2.78,1.92-2.97,3.66-.18,1.75.46,3.14,1.89,4.19ZM463.61,15.19c.73-1.39,1.08-2.79,1.08-4.18,1.08.35,2.7.52,4.85.52-.72,2.1-1.08,3.66-1.08,4.71-2.16-.69-3.77-1.04-4.85-1.04ZM468.47,58.09c2.16,2.1,4.14,2.1,5.93,0,3.6-1.39,4.31-3.48,2.16-6.28-.72-1.39-1.98-2.1-3.77-2.1s-3.24.53-4.31,1.57c-.72.71-1.16,1.84-1.35,3.41-.18,1.57.27,2.7,1.35,3.4ZM473.32,35.07c-1.44.7-2.24,1.92-2.43,3.66-.18,1.74.27,3.13,1.35,4.18,2.16,2.09,4.31,2.09,6.47,0,1.44-.69,2.34-1.74,2.7-3.14.36-1.39.18-2.61-.54-3.66-.72-1.04-1.79-1.65-3.24-1.83-1.44-.18-2.87.09-4.31.78ZM474.4,66.46c1.08,1.39,2.88,1.74,5.39,1.04,1.8-1.04,2.7-2.44,2.7-4.18.36-1.39-.09-2.62-1.35-3.66-1.25-1.04-2.6-1.22-4.04-.53-1.79.71-2.97,1.84-3.51,3.41s-.27,2.87.81,3.92ZM479.79,5.24c-.72,2.1-1.08,3.66-1.08,4.71-2.16-.69-3.95-1.04-5.39-1.04.36-.34.9-1.22,1.62-2.61,2.16-.7,3.77-1.05,4.85-1.05ZM483.03,90c1.08-1.04,1.35-2.35.81-3.92-.54-1.57-1.7-2.17-3.5-1.83-1.79-.34-3.14.35-4.05,2.1-.89,1.74-.81,3.14.27,4.18,2.16,2.1,4.31,1.92,6.47-.53ZM486.8,50.24c1.08-1.74.9-3.48-.54-5.23-1.44-1.74-3.05-2.26-4.85-1.57-1.79.71-3.05,2.01-3.77,3.92-.72,1.93-.36,3.41,1.08,4.45,1.08,1.04,2.52,1.4,4.31,1.04,1.8-.34,3.06-1.21,3.77-2.61ZM480.87,75.35c1.08,1.04,2.52,1.39,4.31,1.04,1.8-.34,2.88-1.39,3.24-3.14.36-1.39.09-2.61-.81-3.66-.89-1.04-2.06-1.39-3.5-1.04-1.79,0-3.14.88-4.05,2.61-.89,1.75-.62,3.14.81,4.19ZM483.57,28.79c-1.44.7-2.24,1.92-2.43,3.66-.18,1.74.27,3.14,1.35,4.18,2.16,2.1,4.31,2.1,6.47,0,1.44-.69,2.34-1.74,2.7-3.14.36-1.39.18-2.61-.54-3.66-.72-1.39-1.79-2.17-3.24-2.35-1.44-.17-2.87.27-4.31,1.31ZM492.73,57.04c.36-1.74-.09-3.05-1.35-3.92-1.25-.87-2.6-.96-4.04-.27-1.79.71-2.97,1.84-3.51,3.41-.54,1.57-.27,2.87.81,3.92,1.44,1.39,3.24,1.74,5.39,1.04,1.8-1.04,2.7-2.44,2.7-4.18ZM490.58,85.29c1.08-.34,2.07-.95,2.96-1.83.9-.87.99-1.83.27-2.88,0-1.74-.9-2.7-2.7-2.87-1.79-.18-3.05.26-3.77,1.3-1.79,1.75-1.98,3.49-.54,5.23,1.44.7,2.7,1.04,3.77,1.04ZM494.89,37.16c-.72-.7-1.7-.78-2.97-.27-1.25.53-2.24,1.14-2.96,1.84-2.51,2.44-2.51,4.7,0,6.8,1.08.7,2.51.97,4.31.78,1.8-.17,3.05-.95,3.77-2.35,1.08-3.14.36-5.4-2.16-6.8ZM498.66,66.98c.36-1.39.09-2.61-.81-3.66-.89-1.05-2.07-1.39-3.5-1.05-1.8,0-3.14.88-4.05,2.62-.89,1.74-.62,3.14.81,4.18.72,1.04,2.07,1.39,4.04,1.04,1.98-.34,3.15-1.39,3.51-3.14ZM495.43,21.47c-2.16.7-3.51,2.01-4.05,3.92-.54,1.92-.09,3.4,1.35,4.44,1.44,1.75,3.24,2.19,5.39,1.31,2.16-.87,3.42-2.35,3.77-4.45.72-1.74.27-3.22-1.35-4.44-1.62-1.22-3.32-1.48-5.12-.78ZM502.98,50.76c.36-1.74-.09-3.05-1.35-3.92-1.25-.87-2.61-.96-4.04-.27-1.8.36-2.97,1.4-3.51,3.14-.54,1.75-.27,3.14.81,4.19,1.44,1.39,3.05,1.74,4.85,1.04,2.16-1.04,3.24-2.44,3.24-4.18ZM497.59,72.73c-1.8,1.75-1.98,3.32-.54,4.71,1.44,1.4,2.7,1.75,3.77,1.05,1.08,0,1.98-.53,2.7-1.57.72-1.05.9-1.91.54-2.62,0-1.74-.9-2.78-2.7-3.14-1.8-.34-3.05.18-3.77,1.57ZM506.21,31.93c-.72-1.04-1.89-1.48-3.51-1.31-1.62.18-2.78.78-3.5,1.84-2.88,2.09-2.88,4.18,0,6.28,1.08,1.04,2.42,1.39,4.04,1.04,1.62-.34,2.79-1.22,3.51-2.61,2.16-2.1,1.98-3.84-.54-5.23ZM504.06,55.47c-1.8.35-3.05,1.39-3.77,3.14s-.36,3.14,1.08,4.18c.72,1.04,2.07,1.31,4.04.78,1.98-.53,2.97-1.65,2.97-3.4.72-1.39.63-2.62-.27-3.66-.89-1.04-2.24-1.39-4.04-1.04ZM505.13,15.19c-1.8.7-2.97,2.01-3.51,3.92-.54,1.92-.09,3.4,1.35,4.44,1.44,1.4,3.24,1.66,5.39.78,2.16-.86,3.42-2.17,3.77-3.92.72-1.74.18-3.22-1.62-4.44-1.8-1.22-3.59-1.48-5.39-.78ZM513.22,43.96c.36-1.39-.08-2.52-1.35-3.4-1.25-.87-2.61-.96-4.04-.26-1.8.35-2.97,1.3-3.51,2.87-.54,1.57-.27,2.88.81,3.92,1.08,1.4,2.7,1.75,4.85,1.04,2.16-.69,3.23-2.09,3.23-4.18ZM507.29,66.46c-1.44,1.74-1.44,3.31,0,4.7,1.08,1.05,2.34,1.4,3.77,1.05,2.88-.69,3.96-2.26,3.23-4.71,0-1.39-.89-2.26-2.69-2.61-1.8-.34-3.24.18-4.31,1.57ZM518.07,28.26c0-1.74-.81-2.96-2.42-3.66-1.62-.69-3.32-.53-5.12.52-1.44.71-2.34,1.84-2.7,3.41s.18,2.87,1.62,3.92c1.44,1.74,3.33,2.01,5.66.78,2.34-1.22,3.33-2.88,2.96-4.98ZM514.3,49.2c-1.79,0-3.05.88-3.77,2.61-.72,1.75-.36,3.14,1.08,4.18.72,1.4,1.98,1.84,3.77,1.31,1.8-.53,2.88-1.65,3.24-3.4.73-1.39.63-2.62-.27-3.66-.89-1.04-2.24-1.39-4.05-1.04ZM515.37,8.91c-1.79.7-2.96,2.01-3.5,3.92-.54,1.92-.09,3.4,1.35,4.44,1.44,1.4,3.24,1.66,5.39.78,2.16-.86,3.42-2.17,3.77-3.92.73-1.74.19-3.22-1.62-4.45-1.79-1.22-3.59-1.48-5.39-.78ZM513.22,80.06c.73.7,1.8,1.04,3.24,1.04s2.52-.69,3.24-2.1c.73-.69.81-1.57.27-2.61s-1.35-1.74-2.43-2.1c-1.79-.69-3.24-.26-4.31,1.31-1.07,1.57-1.07,3.06,0,4.45ZM523.46,37.68c.36-1.39-.18-2.52-1.62-3.4-1.43-.87-2.87-.96-4.31-.26-1.79.35-2.87,1.39-3.24,3.14-.35,1.74,0,3.14,1.08,4.18,1.08,1.04,2.7,1.23,4.85.52,2.16-.69,3.24-2.09,3.24-4.18ZM524.54,61.23c0-1.74-.89-2.7-2.7-2.88-1.79-.17-3.24.44-4.31,1.84-1.43,1.39-1.43,2.96,0,4.71,1.08,1.04,2.34,1.39,3.77,1.04,2.88-.69,3.96-2.26,3.24-4.71ZM519.69,26.18c1.44,1.39,3.15,1.57,5.13.52,1.98-1.04,3.15-2.43,3.5-4.18,0-1.74-.62-3.14-1.88-4.18-1.25-1.05-2.78-1.22-4.59-.53-1.79.7-3.05,2.01-3.77,3.92-.72,1.92-.18,3.4,1.62,4.45ZM520.23,88.96c.73.7,1.71.88,2.97.53,1.26-.34,2.07-1.05,2.42-2.1.73-1.04.54-2.1-.54-3.14-1.08-1.04-2.33-1.22-3.77-.53-1.08.71-1.7,1.57-1.88,2.62-.18,1.04.09,1.92.81,2.61ZM528.86,47.63c.73-1.39.54-2.62-.54-3.66s-2.33-1.39-3.77-1.04c-1.79,0-3.05.88-3.77,2.61-.72,1.75-.54,3.14.54,4.18,1.08,1.4,2.52,1.84,4.31,1.31,1.8-.53,2.88-1.65,3.24-3.4ZM525.62,68.03c-1.08.35-1.88,1.14-2.42,2.35-.54,1.23-.45,2.19.27,2.88.73,1.04,1.8,1.57,3.24,1.57s2.52-.69,3.24-2.1c.73-1.39.54-2.7-.54-3.92-1.08-1.21-2.33-1.48-3.77-.78ZM525.62,34.54c1.08,1.05,2.52,1.4,4.31,1.05,1.8-.34,2.88-1.22,3.24-2.62.73-1.74.54-3.31-.54-4.71-1.08-1.39-2.51-1.74-4.31-1.04-1.79.7-3.05,1.92-3.77,3.66-.72,1.74-.35,2.96,1.08,3.66ZM526.7,97.85c.73.7,1.62.88,2.7.53,1.08-.34,1.8-1.05,2.16-2.1.73-1.39,0-2.43-2.16-3.14-.72-.69-1.52-.6-2.42.27-.89.87-1.35,1.65-1.35,2.35-.35.36,0,1.05,1.08,2.1ZM527.78,53.38c-1.08,1.75-1.08,3.49,0,5.23,1.08,1.39,2.7,1.57,4.85.52,2.16-1.04,2.88-2.43,2.16-4.18,0-1.74-.89-2.7-2.7-2.88-1.79-.17-3.24.27-4.31,1.31ZM532.09,11.52c-1.79.71-3.05,2.01-3.77,3.92-.72,1.92-.18,3.4,1.62,4.45,1.44,1.39,3.15,1.57,5.13.52,1.98-1.04,3.15-2.43,3.5-4.18,0-1.74-.62-3.14-1.88-4.18-1.25-1.04-2.78-1.22-4.59-.53ZM530.47,82.68c1.8,1.04,3.42.88,4.85-.53.73-1.04.81-2.17.27-3.4-.54-1.22-1.53-1.65-2.97-1.31-1.79,0-2.87.71-3.24,2.1-.35,1.4,0,2.45,1.08,3.14ZM533.17,145.98c1.08-1.04,1.08-1.91,0-2.61-.35-.34-1.08-.34-2.16,0-.72,1.04-.89,1.74-.54,2.09.73.35,1.62.53,2.7.53ZM539.1,41.35c.73-1.39.54-2.61-.54-3.66-1.08-1.04-2.33-1.39-3.77-1.04-1.79,0-3.05.88-3.77,2.61-.72,1.75-.54,3.14.54,4.18,1.08,1.05,2.52,1.4,4.31,1.05,1.8-.34,2.88-1.39,3.24-3.14ZM532.63,106.74c1.44.71,2.7.53,3.77-.52,1.44-1.05,1.44-2.26,0-3.66-1.43-.69-2.7-.53-3.77.53-1.08,1.39-1.08,2.61,0,3.66ZM534.79,169c0-.34-.08-.53-.27-.53-.18,0-.27-.17-.27-.52-.35,0-.89.35-1.62,1.04l1.08,1.04,1.08-1.04ZM540.18,66.46c.73-1.74.54-3.14-.54-4.19-1.08-1.04-2.33-1.22-3.77-.52-1.08.35-1.88,1.14-2.42,2.35-.54,1.23-.45,2.18.27,2.87.73,1.05,1.8,1.49,3.24,1.31,1.44-.18,2.52-.78,3.24-1.83ZM534.79,130.81c.36,0,.73.09,1.08.26.36.18.9.09,1.62-.26,1.08-1.05,1.26-1.91.54-2.62-.35-1.04-1.25-1.21-2.7-.52-1.79.7-1.97,1.74-.54,3.14ZM543.42,26.18c.73-1.74.46-3.22-.81-4.45-1.25-1.22-2.78-1.48-4.59-.78-1.79.7-2.96,1.83-3.5,3.4-.54,1.57-.09,2.88,1.35,3.92,1.08,1.05,2.43,1.4,4.05,1.05,1.62-.34,2.79-1.39,3.5-3.14ZM536.94,91.57c.73.71,1.54.78,2.43.27.9-.53,1.71-1.13,2.42-1.84.73-1.74,0-2.96-2.16-3.66-2.16-.7-3.59.35-4.31,3.14,0,.35.54,1.04,1.62,2.09ZM535.33,193.59c.36,0,.54-.18.54-.53-.35,0-.54.18-.54.53ZM539.1,154.35c.73-1.39.36-2.09-1.08-2.09-.72,0-1.16.26-1.35.78-.18.52-.09.96.27,1.3.36.36.81.53,1.35.53s.81-.17.81-.53ZM538.02,51.81c1.08,1.75,2.7,2.1,4.85,1.04,2.16-1.04,2.88-2.43,2.16-4.18,0-1.74-.89-2.79-2.7-3.14-1.79-.34-3.24.18-4.31,1.57-1.43,1.75-1.43,3.32,0,4.71ZM539.1,115.64c1.08,1.04,2.16.87,3.24-.53,1.44-1.39,1.26-2.44-.54-3.14-.72-1.04-1.79-.87-3.24.53-1.43,1.39-1.25,2.44.54,3.14ZM540.18,177.37c-.35,0-.72.18-1.08.53l.54,1.04,1.08-1.04-.54-.53ZM542.88,70.65c-1.79.35-2.87,1.23-3.24,2.61-.35,1.4,0,2.45,1.08,3.14.73.7,1.54.88,2.43.53.9-.34,1.71-.87,2.42-1.57.73-.69.81-1.74.27-3.14-.54-1.39-1.53-1.91-2.97-1.57ZM540.72,139.18c1.08.35,1.98.35,2.7,0,1.08-1.04,1.08-1.74,0-2.09-.35-.34-1.08-.34-2.16,0-.72,1.04-.89,1.74-.54,2.09ZM549.35,34.54c.73-1.39.54-2.52-.54-3.4-1.08-.87-2.33-1.31-3.77-1.31-1.79.35-3.05,1.4-3.77,3.14-.72,1.75-.54,3.14.54,4.19,1.08,1.04,2.52,1.3,4.31.78,1.8-.53,2.88-1.65,3.24-3.41ZM542.88,100.46c1.44.71,2.7.53,3.77-.52,1.44-1.05,1.44-2.26,0-3.66-1.79-1.04-3.05-.87-3.77.53-1.08,1.39-1.08,2.61,0,3.66ZM545.03,162.72c0-.34-.18-.69-.54-1.04-.35,0-.62.08-.81.26-.18.18-.45.26-.81.26.36.35.54.62.54.78,0,.18.19.44.54.78l1.08-1.04ZM550.43,59.66c.73-1.39.54-2.61-.54-3.66-1.08-1.04-2.33-1.22-3.77-.52-1.08.35-1.88,1.14-2.42,2.35-.54,1.23-.45,2.18.27,2.87.73,1.05,1.8,1.49,3.24,1.31,1.44-.18,2.52-.96,3.24-2.35ZM545.03,124.01c.36.35,1.26.53,2.7.53.73-1.39.9-2.44.54-3.14-.72-.69-1.62-.69-2.7,0-1.79,1.04-1.97,1.92-.54,2.61ZM547.19,85.29c.73.71,1.54.78,2.43.27.9-.53,1.53-1.13,1.88-1.84.73-1.74.19-2.96-1.62-3.66-.72-.34-1.62-.18-2.7.52-1.08.71-1.62,1.57-1.62,2.62s.54,1.74,1.62,2.09ZM545.57,187.31c.36,0,.54-.17.54-.53-.35,0-.54.18-.54.53ZM549.35,147.55c1.08-1.04.73-1.57-1.08-1.57-.72-.34-1.16-.18-1.35.53-.18.7-.09,1.23.27,1.56.73.71,1.44.53,2.16-.52ZM548.27,45.53c.73,1.04,1.71,1.49,2.97,1.31,1.26-.18,2.25-.78,2.96-1.84,1.44-1.39,1.62-2.96.54-4.7-.72-.7-1.88-.96-3.5-.78-1.62.18-2.78.78-3.51,1.83-1.08,1.39-.89,2.8.54,4.18ZM549.35,109.36c1.08,1.04,2.16.87,3.24-.53.73-1.39.54-2.44-.54-3.14-.72-1.04-1.79-.87-3.24.53-1.08.7-.89,1.74.54,3.14ZM550.96,171.62c-.35,0-.54-.34-.54-1.04l-1.08,1.04.54.53c.36,0,.73-.18,1.08-.53ZM555.82,69.08c.73-1.04.73-2.17,0-3.4-.72-1.22-1.79-1.65-3.24-1.31-1.43.35-2.33,1.23-2.7,2.61-.35,1.4,0,2.45,1.08,3.14.73.7,1.54.88,2.43.53.9-.34,1.71-.87,2.42-1.57ZM550.96,132.9c.36,0,.63.09.81.27.19.18.45.26.81.26,1.08,0,1.62-.69,1.62-2.1,0-.69-.89-1.04-2.7-1.04-1.08,1.04-1.25,1.92-.54,2.61ZM559.59,28.26c.73-1.39.54-2.61-.54-3.66-1.08-1.05-2.33-1.39-3.77-1.05-1.79,0-3.05.88-3.77,2.62-.72,1.74-.54,3.14.54,4.18,1.08,1.39,2.52,1.83,4.31,1.31,1.8-.53,2.88-1.65,3.24-3.41ZM553.12,90.53c-1.43,1.39-1.43,2.45,0,3.14,1.44,1.39,2.7,1.39,3.77,0,1.8-1.74,1.8-2.96,0-3.66-1.43-1.39-2.7-1.22-3.77.53ZM555.28,156.44c0-.34-.08-.6-.27-.78-.18-.17-.27-.43-.27-.78-.72.7-1.25,1.04-1.62,1.04l1.08,1.05,1.08-.53ZM554.2,54.42c.73,1.05,1.89,1.49,3.51,1.31,1.62-.18,2.61-1.13,2.96-2.88.73-1.39.54-2.61-.54-3.66-1.08-1.05-2.33-1.22-3.77-.53-1.08.7-1.88,1.57-2.42,2.61-.54,1.05-.45,2.1.27,3.14ZM555.28,117.73c.73.71,1.44.71,2.16,0,1.44-.69,1.8-1.57,1.08-2.61-1.08-1.04-1.97-1.22-2.7-.53-1.43,1.4-1.62,2.45-.54,3.14ZM555.82,76.4c0,1.04.36,1.92,1.08,2.61,2.52,1.4,4.14.88,4.85-1.57.73-1.74.19-2.96-1.62-3.66-.72-.34-1.62-.18-2.7.52-1.08.71-1.62,1.4-1.62,2.1ZM555.82,181.03c.36-.34.54-.69.54-1.04-.35.35-.54.7-.54,1.04ZM565.52,35.59c-.35-1.39-1.43-2.27-3.24-2.62-1.79-.34-3.05.18-3.77,1.57-1.79,1.05-1.97,2.62-.54,4.71,1.8,1.75,3.6,1.92,5.39.53,1.44-.34,2.16-1.74,2.16-4.18ZM559.59,141.27c.36-.34.46-.78.27-1.31-.18-.52-.62-.6-1.35-.26-.72-.34-1.16-.26-1.35.26-.18.53-.09,1.14.27,1.84.73.7,1.44.52,2.16-.53ZM559.05,99.42c-1.08,1.04-1.08,2.1,0,3.14,1.08,1.04,2.34.88,3.77-.53,1.08-.69.9-1.74-.54-3.14-.72-.69-1.79-.52-3.24.53ZM561.21,165.34c-.35-.34-.54-.69-.54-1.04-.35.35-.72.53-1.08.53,0,.7.19,1.04.54,1.04l1.08-.53ZM561.21,63.84c.73.71,1.71.78,2.97.27,1.26-.53,2.07-1.31,2.42-2.35.36-1.05.1-2-.81-2.88-.89-.87-1.89-1.13-2.97-.78-1.43.35-2.33,1.23-2.7,2.61-.35,1.4,0,2.45,1.08,3.14ZM564.45,125.05c0-1.39-.89-1.74-2.7-1.04-.72.7-.89,1.57-.54,2.61h1.62c1.08,0,1.62-.52,1.62-1.57ZM563.37,84.25c-.72.35-1.08.88-1.08,1.57s.36,1.23,1.08,1.57c1.44,1.39,2.7,1.23,3.77-.53.73-1.74.54-2.79-.54-3.14-.35-.69-.89-.95-1.62-.78-.72.18-1.25.62-1.62,1.31ZM570.92,46.57c.73-1.39.54-2.61-.54-3.66-1.08-1.05-2.33-1.22-3.77-.53-3.59,1.4-4.31,3.14-2.16,5.23.73,1.39,1.89,1.92,3.51,1.57,1.62-.34,2.61-1.22,2.96-2.62ZM563.91,150.69c.36,0,.63-.08.81-.27.19-.17.45-.26.81-.26,0-.34-.08-.6-.27-.78-.18-.17-.27-.43-.27-.78-.35.35-.62.53-.81.53-.18,0-.45.18-.81.52,0,.36.1.53.27.53.19,0,.27.18.27.53ZM566.06,108.31c-1.79.71-1.97,1.75-.54,3.14.73.71,1.44.71,2.16,0,1.44-.69,1.8-1.57,1.08-2.61-.72-1.39-1.62-1.57-2.7-.53ZM571.99,70.65c.73-1.39.19-2.44-1.62-3.14-.72-.34-1.62-.18-2.7.53s-1.62,1.39-1.62,2.09.36,1.4,1.08,2.1c.73.7,1.62.88,2.7.52,1.08-.34,1.8-1.04,2.16-2.09ZM566.6,173.71l-.54.53c.36,0,.54-.18.54-.53ZM569.84,134.99c.73-1.39.36-2.1-1.08-2.1s-1.79.88-1.08,2.62c1.44,0,2.16-.18,2.16-.53ZM573.07,95.75c.73-1.04.54-2.09-.54-3.13-1.43-.7-2.51-.53-3.24.52-1.43,1.4-1.43,2.45,0,3.14,1.08,1.04,2.34.88,3.77-.53ZM571.46,159.06c-.35-.34-.54-.69-.54-1.04-.35,0-.72.18-1.08.53,0,.35.19.7.54,1.04l1.08-.53ZM576.85,55.47c.36-1.05.1-2-.81-2.88-.9-.87-1.89-1.13-2.97-.78-1.43.35-2.33,1.14-2.7,2.35-.35,1.23,0,2.18,1.08,2.88.73.7,1.62.87,2.7.52,1.08-.34,1.98-1.04,2.7-2.09ZM571.46,119.82c.73.7,1.35.97,1.89.78.54-.18.81-.6.81-1.31.73-.69.73-1.22,0-1.57-.72-.34-1.43-.34-2.16,0-.72,1.05-.89,1.75-.54,2.1ZM577.39,80.58c.73-1.74.54-2.96-.54-3.66-1.08-1.05-2.33-.87-3.77.52-.72,1.4-.54,2.62.54,3.66,1.44.7,2.7.53,3.77-.53ZM575.77,143.37l-1.08-1.05-1.08,1.05.54,1.04c.36-.34.63-.53.81-.53s.45-.17.81-.52ZM581.16,40.82c.73-1.39.54-2.7-.54-3.92-1.08-1.22-2.33-1.48-3.77-.78-1.43.35-2.33,1.14-2.7,2.35-.35,1.23-.18,2.19.54,2.88.73,1.04,1.8,1.49,3.24,1.3,1.44-.17,2.52-.78,3.24-1.83ZM579,102.56c-.72-1.04-1.79-1.22-3.24-.53-1.08,1.05-1.08,2.1,0,3.14.73.71,1.44.71,2.16,0,1.8-.69,2.16-1.57,1.08-2.61ZM580.62,61.23c-.72-.69-1.62-.69-2.7,0-1.08.7-1.62,1.57-1.62,2.61,0,.71.36,1.4,1.08,2.1.73.7,1.62.88,2.7.53,1.08-.34,1.8-1.05,2.16-2.1.73-2.1.19-3.14-1.62-3.14ZM576.31,167.96c.36,0,.36-.18,0-.53v.53ZM579,126.62c-.72,0-1.25.27-1.62.78-.35.53-.18.97.54,1.31.73.7,1.44.7,2.16,0,.73-1.39.36-2.1-1.08-2.1ZM583.32,89.48c.73-1.39.54-2.44-.54-3.14-1.43-.7-2.51-.53-3.24.52-1.43,1.4-1.43,2.45,0,3.14,1.44.71,2.7.53,3.77-.52ZM581.7,152.26c-.35,0-.54-.08-.54-.27,0-.17-.18-.26-.54-.26l-.54.53c0,.35.19.7.54,1.04l1.08-1.04ZM587.09,49.2c.36-1.05.1-2-.81-2.88-.9-.87-1.89-1.13-2.97-.78-1.43,0-2.42.7-2.96,2.1-.54,1.39-.09,2.45,1.35,3.14.73.7,1.62.88,2.7.52,1.08-.34,1.98-1.04,2.7-2.09ZM584.4,113.02c.36-.69.27-1.22-.27-1.57-.54-.34-1.16-.34-1.89,0-.72,1.05-.89,1.75-.54,2.1.73.7,1.35.97,1.89.78.54-.18.81-.6.81-1.31ZM587.09,70.65c-1.43-.69-2.7-.53-3.77.52-.72,1.75-.54,2.97.54,3.66,1.08,1.04,2.34.88,3.77-.53.73-1.39.54-2.61-.54-3.66ZM584.94,136.04l-1.08.53c0,.35.1.61.27.78.18.18.27.44.27.78.36-.34.63-.53.81-.53s.45-.17.81-.52l-1.08-1.05ZM589.25,96.28c-.72-1.04-1.79-1.22-3.24-.53-1.79,1.05-1.79,1.93,0,2.62,1.08,1.04,1.8,1.23,2.16.52,1.8-.69,2.16-1.57,1.08-2.61ZM586.55,161.68c.36,0,.54-.08.54-.27,0-.17-.18-.26-.54-.26s-.54.09-.54.26c0,.18.19.27.54.27ZM590.87,54.42c-.72-.34-1.62-.17-2.7.53-1.08.7-1.62,1.57-1.62,2.61,0,.71.36,1.4,1.08,2.1,2.52,1.39,4.14.88,4.85-1.57.73-1.74.19-2.96-1.62-3.66ZM589.25,120.35c-.72-.34-1.25-.18-1.62.52-.35.7-.18,1.23.54,1.57.73.7,1.44.53,2.16-.53,1.08-1.04.73-1.56-1.08-1.56ZM593.02,80.06c-1.43-1.39-2.51-1.22-3.24.52-1.43.71-1.43,1.75,0,3.14,1.44.71,2.52.53,3.24-.52,1.44-1.39,1.44-2.44,0-3.14ZM591.41,145.98l-.54-.53-1.08.53c.36,0,.54.09.54.26,0,.18.19.27.54.27l.54-.53ZM594.64,106.22c.36-.69.27-1.22-.27-1.57-.54-.34-1.16-.34-1.89,0-.72,1.39-.89,2.27-.54,2.61,1.8,1.04,2.7.7,2.7-1.04ZM597.34,64.37c-1.43-.69-2.7-.53-3.77.53-.72,1.74-.54,2.96.54,3.66.36.35.9.53,1.62.53s1.26-.34,1.62-1.04c1.44-1.05,1.44-2.27,0-3.66ZM596.26,130.81l-1.08-1.05c-.35,0-.54.09-.54.27s-.18.26-.54.26c0,.35.1.62.27.78.18.18.27.44.27.78.73-.69,1.26-1.04,1.62-1.04ZM599.5,89.48c-1.43-.7-2.51-.87-3.24-.53-1.43,1.39-1.43,2.45,0,3.14.73.7,1.44.7,2.16,0,.73-.34,1.08-1.22,1.08-2.61ZM596.8,155.4c.36,0,.54-.08.54-.27,0-.17-.18-.26-.54-.26s-.35.18,0,.53ZM599.5,114.07c-.72-.34-1.25-.18-1.62.52-.35.71-.18,1.23.54,1.57.73.71,1.44.53,2.16-.52,1.08-1.05.73-1.57-1.08-1.57ZM603.27,73.78c-1.43-1.39-2.51-1.22-3.24.52-1.79,1.05-1.79,1.93,0,2.62,1.08,1.04,2.16,1.04,3.24,0,1.44-1.39,1.44-2.44,0-3.14ZM601.65,139.7c0-.34-.18-.69-.54-1.04l-1.08,1.04c.36,0,.54.18.54.53.36,0,.73-.18,1.08-.53ZM604.89,99.94c.36-.69.27-1.22-.27-1.57-.54-.34-1.16-.34-1.89,0-.72.7-.89,1.57-.54,2.61.36.35.9.44,1.62.26.73-.17,1.08-.6,1.08-1.3ZM606.51,124.53c-.35-.34-.54-.61-.54-.78s-.18-.43-.54-.78l-1.08,1.04c0,.35.19.7.54,1.04.36,0,.63-.08.81-.26.18-.17.45-.26.81-.26ZM609.2,83.2c-.72-.7-1.62-.87-2.7-.53-1.08,1.39-1.25,2.45-.54,3.14,1.08.7,1.98.7,2.7,0,1.08-.34,1.26-1.22.54-2.61ZM607.04,149.12c.36-.34.36-.69,0-1.05-.35.36-.35.71,0,1.05ZM609.74,107.27c-1.79,0-2.33.88-1.62,2.61,1.44.71,2.34.53,2.7-.52.73-1.39.36-2.1-1.08-2.1ZM611.9,133.43c0-.34-.18-.69-.54-1.04l-1.08.52c.36.36.54.71.54,1.05.36,0,.73-.18,1.08-.53Z"/>
    </g>
  </g>
</svg>